<svg width="56" height="56" viewBox="0 0 56 56" fill="none" xmlns="http://www.w3.org/2000/svg">
  <rect width="56" height="56" rx="10" fill="#7F97F1" />
  <path
    d="M42.1026 45.9999H13.3974C12.6288 45.9999 12 45.4552 12 44.7894V39.1104C12 38.4446 12.6288 37.8999 13.3974 37.8999H42.1026C42.8712 37.8999 43.5 38.4446 43.5 39.1104V44.7894C43.5 45.4552 42.8712 45.9999 42.1026 45.9999Z"
    fill="black" />
  <path
    d="M42.0804 36.1H21.5196C20.7388 36.1 20.1 35.5553 20.1 34.8895V29.2105C20.1 28.5447 20.7388 28 21.5196 28H42.0804C42.8611 28 43.5 28.5447 43.5 29.2105V34.8895C43.5 35.5553 42.8611 36.1 42.0804 36.1Z"
    fill="black" />
  <path
    d="M35.3483 25.3223C39.8503 25.3223 43.4999 21.6684 43.4999 17.1611C43.4999 12.6539 39.8503 9 35.3483 9C30.8464 9 27.1968 12.6539 27.1968 17.1611C27.1968 21.6684 30.8464 25.3223 35.3483 25.3223Z"
    fill="#EDEDED" />
  <path d="M35.3969 11.4492L31.713 21.5833L32.479 21.8624L36.1629 11.7283L35.3969 11.4492Z" fill="black" />
  <path d="M34.3886 20.0223L33.5762 22.2573L34.3422 22.5364L35.1546 20.3015L34.3886 20.0223Z" fill="black" />
  <path d="M37.2613 12.1278L36.4489 14.3628L37.2149 14.6419L38.0273 12.4069L37.2613 12.1278Z" fill="black" />
  <path
    d="M37.0956 18.116C36.8743 18.116 36.6531 18.081 36.4435 17.9994L33.8 17.0317L34.0795 16.2622L36.723 17.2299C37.0024 17.3348 37.2936 17.3115 37.5614 17.1949C37.8292 17.0667 38.0272 16.8452 38.132 16.577C38.3416 16.0057 38.0389 15.3762 37.4682 15.1663L32.8335 13.4758L33.113 12.7063L37.7477 14.3968C38.7376 14.7582 39.2499 15.8658 38.8889 16.8568C38.7143 17.3348 38.3649 17.7196 37.8991 17.9411C37.6429 18.0577 37.3634 18.116 37.0956 18.116Z"
    fill="black" />
  <path
    d="M36.8861 21.2522C36.6649 21.2522 36.4436 21.2173 36.234 21.1356L30.7725 19.142L31.0519 18.3725L36.5135 20.3662C36.793 20.4711 37.0841 20.4478 37.3519 20.3312C37.6198 20.2029 37.8177 19.9814 37.9226 19.7133C38.0274 19.4335 38.0041 19.142 37.8876 18.8738C37.7712 18.6057 37.5383 18.4075 37.2704 18.3026L33.4392 16.9035L33.7187 16.134L37.5499 17.5331C38.0274 17.708 38.4116 18.0577 38.6329 18.5241C38.8542 18.9904 38.8775 19.5151 38.7028 19.9931C38.5281 20.4711 38.1787 20.8558 37.7129 21.0774C37.4451 21.1939 37.1656 21.2522 36.8861 21.2522Z"
    fill="black" />
</svg>
