<svg width="126" height="88" viewBox="0 0 126 88" fill="none" xmlns="http://www.w3.org/2000/svg">
<rect opacity="0.64" x="24" y="84.3711" width="28.9479" height="3.62886" fill="#F9A14D"/>
<rect opacity="0.64" y="84.3711" width="28.9479" height="3.62886" fill="#F9A14D"/>
<rect opacity="0.64" x="24" y="78.3242" width="28.9479" height="3.62886" fill="#F9A14D"/>
<rect opacity="0.64" x="24" y="78.3242" width="28.9479" height="3.62886" fill="#F9A14D"/>
<rect opacity="0.64" x="72.1211" y="84.3711" width="28.9479" height="3.62886" fill="#F9A14D"/>
<rect opacity="0.64" x="96.1211" y="84.3711" width="28.9479" height="3.62886" fill="#F9A14D"/>
<rect opacity="0.64" x="72.1211" y="78.3242" width="28.9479" height="3.62886" fill="#F9A14D"/>
<rect opacity="0.64" x="72.1211" y="72.2754" width="28.9479" height="3.62886" fill="#F9A14D"/>
<rect opacity="0.64" x="24" y="72.2754" width="28.9479" height="3.62886" fill="#F9A14D"/>
<rect opacity="0.64" x="72.1211" y="66.2285" width="28.9479" height="3.62886" fill="#F9A14D"/>
<rect opacity="0.64" x="48.2451" y="84.3711" width="28.9479" height="3.62886" fill="#F9A14D"/>
<rect opacity="0.64" x="48.2451" y="78.3242" width="28.9479" height="3.62886" fill="#F9A14D"/>
<rect opacity="0.64" x="48.2451" y="72.2754" width="28.9479" height="3.62886" fill="#F9A14D"/>
<rect opacity="0.64" x="48.2451" y="66.2285" width="28.9479" height="3.62886" fill="#F9A14D"/>
<rect opacity="0.64" x="48.2451" y="60.1777" width="28.9479" height="3.62886" fill="#F9A14D"/>
<rect opacity="0.64" x="48.2451" y="54.1328" width="28.9479" height="3.62886" fill="#F9A14D"/>
<path d="M62.7259 49.2926C70.663 49.2926 77.193 42.7576 77.193 34.784C77.193 26.8105 70.663 20.2617 62.7122 20.2617C54.7615 20.2617 48.2451 26.8105 48.2451 34.784C48.2451 42.7576 54.7751 49.2926 62.7259 49.2926ZM58.1084 39.7846V29.9889C58.1084 28.9614 58.7095 28.3449 59.6795 28.3449H60.5128V27.153C60.5128 26.7831 60.786 26.509 61.1549 26.509C61.51 26.509 61.7833 26.7831 61.7833 27.153V28.3449H62.7395V27.153C62.7395 26.7831 63.0128 26.509 63.368 26.509C63.7231 26.509 63.9964 26.7831 63.9964 27.153V28.3723C66.2914 28.523 67.6575 29.7834 67.6575 31.7015C67.6575 32.8797 66.9198 33.9757 65.827 34.4552C67.2614 34.8936 68.2313 36.1266 68.2313 37.5926C68.2313 39.8257 66.6193 41.2643 63.9964 41.3876V42.5658C63.9964 42.9357 63.7231 43.2097 63.368 43.2097C63.0128 43.2097 62.7395 42.9357 62.7395 42.5658V41.4013H61.7833V42.5658C61.7833 42.9357 61.5237 43.2097 61.1549 43.2097C60.786 43.2097 60.5128 42.9357 60.5128 42.5658V41.4013H59.6795C58.6959 41.4013 58.1084 40.7984 58.1084 39.7846ZM61.0729 33.6058L62.6576 33.6195C63.969 33.6332 64.7067 33.0441 64.7067 32.0714C64.7067 31.1671 64.0373 30.6328 62.9035 30.6328H61.0729V33.6058ZM61.0729 39.0859L63.0674 39.0722C64.4882 39.0722 65.2259 38.4968 65.2259 37.3871C65.2259 36.3048 64.4745 35.7293 62.9991 35.7293H61.0729V39.0859Z" fill="#3700FF"/>
<path fill-rule="evenodd" clip-rule="evenodd" d="M37.2127 14.9085C37.4971 14.4965 38.0606 14.3938 38.4714 14.679C38.8364 14.9324 39.3365 15.3769 39.8566 15.8392C39.9318 15.906 40.0074 15.9732 40.083 16.0402C40.7131 16.5984 41.4098 17.2042 42.1087 17.7165C42.9043 18.2995 43.7208 18.8018 44.4527 19.2296C44.7028 19.3758 44.9514 19.518 45.1877 19.6531C45.616 19.898 46.0035 20.1196 46.2849 20.2996C46.7061 20.5691 46.8297 21.13 46.561 21.5524C46.2923 21.9748 45.7331 22.0988 45.3119 21.8293C45.0654 21.6716 44.7471 21.4898 44.3555 21.2661C44.1125 21.1273 43.8413 20.9724 43.5415 20.7971C42.7865 20.3558 41.9093 19.8176 41.0412 19.1814C40.268 18.6147 39.516 17.9589 38.8852 17.4C38.8089 17.3324 38.7351 17.2669 38.6637 17.2035C38.1155 16.7171 37.71 16.3572 37.4415 16.1708C37.0308 15.8856 36.9283 15.3204 37.2127 14.9085Z" fill="#AAB3FF"/>
<path fill-rule="evenodd" clip-rule="evenodd" d="M52.5856 4.01019C52.932 5.35763 53.3694 7.18458 53.545 8.1281L55.08 16.3787C55.1716 16.8712 54.8478 17.345 54.3566 17.4369C53.8655 17.5288 53.3931 17.204 53.3014 16.7115L51.7664 8.4609C51.603 7.58278 51.1792 5.80728 50.8337 4.46309C50.7373 4.08822 50.6494 3.75604 50.5767 3.49187C50.4808 3.37657 50.4121 3.23575 50.3827 3.07764C50.3607 2.95902 50.3433 2.85764 50.3321 2.77723C50.3266 2.73822 50.3208 2.69165 50.3175 2.64461C50.3158 2.6214 50.3139 2.58668 50.3144 2.54634L50.3144 2.5463C50.3148 2.5201 50.316 2.42847 50.3443 2.31833C50.3577 2.26627 50.3932 2.14336 50.4863 2.01308C50.5903 1.8675 50.805 1.66703 51.1427 1.63665C51.4464 1.60932 51.663 1.73912 51.7526 1.8035C51.8493 1.87297 51.9104 1.94589 51.9381 1.98092C52.0251 2.09123 52.0717 2.20655 52.0784 2.22299C52.0787 2.22378 52.0789 2.22433 52.079 2.22466C52.1093 2.29708 52.1376 2.38277 52.1601 2.45411C52.2558 2.75769 52.4132 3.33928 52.5856 4.01019Z" fill="#AAB3FF"/>
<path fill-rule="evenodd" clip-rule="evenodd" d="M75.0971 0C75.5967 0 76.0017 0.406174 76.0017 0.907216C76.0017 1.13877 76.0029 1.37335 76.0041 1.61041C76.0101 2.81582 76.0165 4.08517 75.8704 5.34452C75.6283 7.43324 75.33 9.59189 74.8173 11.683C74.6916 12.1955 74.5594 12.6755 74.4323 13.1373C74.1044 14.328 73.8099 15.3975 73.7465 16.5903C73.7198 17.0906 73.2938 17.4746 72.7949 17.4479C72.296 17.4212 71.9132 16.994 71.9398 16.4936C72.0145 15.0882 72.3858 13.7415 72.7308 12.4899C72.8478 12.0651 72.9619 11.6512 73.0604 11.2498C73.5452 9.27231 73.8333 7.20507 74.0733 5.13495C74.2055 3.99453 74.2003 2.85407 74.1947 1.64977C74.1936 1.40507 74.1925 1.15773 74.1925 0.907216C74.1925 0.406174 74.5975 0 75.0971 0Z" fill="#AAB3FF"/>
<path fill-rule="evenodd" clip-rule="evenodd" d="M87.7404 13.2422C88.1507 13.528 88.2524 14.0933 87.9674 14.5048C85.7561 17.6983 83.4004 20.8093 79.7832 22.8756C79.3491 23.1236 78.7967 22.9717 78.5494 22.5363C78.3021 22.101 78.4536 21.547 78.8877 21.299C82.1205 19.4523 84.2797 16.6493 86.4813 13.4699C86.7663 13.0584 87.33 12.9564 87.7404 13.2422Z" fill="#AAB3FF"/>
<path fill-rule="evenodd" clip-rule="evenodd" d="M82.1953 32.6338C82.1953 32.1327 82.6003 31.7266 83.0999 31.7266H86.2931C86.7927 31.7266 87.1977 32.1327 87.1977 32.6338C87.1977 33.1348 86.7927 33.541 86.2931 33.541H83.0999C82.6003 33.541 82.1953 33.1348 82.1953 32.6338Z" fill="#AAB3FF"/>
<path fill-rule="evenodd" clip-rule="evenodd" d="M33.0957 30.5347C33.3191 30.0865 33.8625 29.9049 34.3094 30.1289C35.555 30.7535 37.0002 30.9383 38.5927 30.9473C39.3862 30.9517 40.1934 30.913 41.0182 30.8716C41.0519 30.8699 41.0857 30.8682 41.1196 30.8665C41.9033 30.827 42.705 30.7866 43.4842 30.7866C43.9838 30.7866 44.3888 31.1928 44.3888 31.6939C44.3888 32.1949 43.9838 32.6011 43.4842 32.6011C42.7515 32.6011 41.9907 32.6393 41.193 32.6795C41.165 32.6809 41.1369 32.6823 41.1087 32.6837C40.2892 32.7249 39.4338 32.7665 38.5825 32.7617C36.8855 32.7521 35.1124 32.5602 33.5003 31.7518C33.0534 31.5277 32.8723 30.9828 33.0957 30.5347Z" fill="#AAB3FF"/>
<path fill-rule="evenodd" clip-rule="evenodd" d="M66.5566 8.64748C66.767 8.37999 66.8176 8.00428 66.6556 7.67943C66.4322 7.23128 65.8888 7.04964 65.4419 7.27371C65.1151 7.43759 64.9729 7.72842 64.9266 7.82879C64.8619 7.96916 64.8223 8.1122 64.7972 8.22311C64.747 8.44431 64.7222 8.68535 64.7222 8.85637C64.7222 8.95042 64.6892 9.10558 64.5977 9.38672C64.5836 9.42979 64.5674 9.47813 64.5498 9.53042C64.4754 9.75127 64.3773 10.0428 64.3247 10.3066C64.2023 10.9203 64.0142 11.5278 63.8091 12.1898C63.758 12.3547 63.7059 12.523 63.6535 12.6957C63.3998 13.5312 63.1471 14.4472 63.0767 15.3998C63.0398 15.8995 63.4138 16.3346 63.9121 16.3716C64.4103 16.4086 64.8441 16.0335 64.881 15.5339C64.9355 14.7966 65.1349 14.0454 65.3843 13.2242C65.4294 13.0756 65.4766 12.9234 65.5247 12.7685C65.7324 12.0992 65.9561 11.3781 66.0988 10.6624C66.1265 10.5234 66.1739 10.3816 66.2412 10.1806C66.2643 10.1114 66.2898 10.0352 66.3176 9.9497C66.408 9.67183 66.5314 9.26947 66.5314 8.85637C66.5314 8.85637 66.5314 8.85618 66.5314 8.8558L66.5314 8.85413L66.5316 8.84804L66.5327 8.82732C66.5338 8.81011 66.5356 8.78892 66.5383 8.76509C66.543 8.72451 66.5493 8.68364 66.5566 8.64748Z" fill="#AAB3FF"/>
</svg>
