<svg width="104" height="104" viewBox="0 0 104 104" fill="none" xmlns="http://www.w3.org/2000/svg">
<circle opacity="0.24" cx="52" cy="52" r="49" stroke="#D4001A" stroke-width="6"/>
<path fill-rule="evenodd" clip-rule="evenodd" d="M40.8599 35.9105C40.1998 35.2729 39.3157 34.9202 38.398 34.9281C37.4804 34.9361 36.6025 35.3042 35.9536 35.9531C35.3047 36.602 34.9366 37.4799 34.9286 38.3975C34.9206 39.3152 35.2734 40.1993 35.911 40.8594L47.0513 51.9997L35.911 63.1401C35.2542 63.7963 34.8851 64.6866 34.8848 65.615C34.8846 66.0747 34.975 66.53 35.1508 66.9548C35.3265 67.3796 35.5843 67.7656 35.9092 68.0907C36.2342 68.4159 36.62 68.6739 37.0446 68.85C37.4693 69.0261 37.9245 69.1168 38.3842 69.1169C39.3126 69.1173 40.2032 68.7488 40.8599 68.0925L52.0003 56.9522L63.1407 68.0925C63.7974 68.7492 64.6881 69.1182 65.6169 69.1182C66.5457 69.1182 67.4364 68.7492 68.0931 68.0925C68.7499 67.4358 69.1188 66.545 69.1188 65.6163C69.1188 64.6875 68.7499 63.7968 68.0931 63.1401L56.9527 51.9997L68.0931 40.8594C68.4181 40.5342 68.6758 40.1482 68.8516 39.7234C69.0273 39.2987 69.1177 38.8434 69.1176 38.3837C69.1174 37.924 69.0267 37.4688 68.8506 37.0441C68.6745 36.6195 68.4165 36.2337 68.0914 35.9087C67.7662 35.5838 67.3802 35.3261 66.9554 35.1503C66.5306 34.9745 66.0754 34.8841 65.6157 34.8843C65.1559 34.8844 64.7008 34.9751 64.2761 35.1512C63.8514 35.3273 63.4656 35.5853 63.1407 35.9105L52.0003 47.0508L40.8599 35.9105Z" fill="#D4001A"/>
</svg>
