<svg width="100" height="76" viewBox="0 0 100 76" fill="none" xmlns="http://www.w3.org/2000/svg">
  <path
    d="M92.5429 55.3433C92.5429 62.1952 72.3383 67.8174 47.3901 67.8174C22.4418 67.8174 2.32511 62.1952 2.32511 55.3433C2.32511 48.4913 22.5297 42.8691 47.4779 42.8691C72.4261 42.8691 92.5429 48.4913 92.5429 55.3433ZM92.0158 65.4455L98.8678 64.4792C99.9219 64.3035 100.361 63.0737 99.6584 62.2831L96.9352 59.3842C96.4081 58.8571 95.6175 58.8571 95.0904 59.2963L91.0495 63.1615C89.9953 64.04 90.6981 65.6212 92.0158 65.4455ZM79.7174 69.0472L81.5621 68.3445C82.2649 68.0809 83.1433 68.4323 83.319 69.2229L83.8461 71.0677C84.0218 71.7704 83.6704 72.4732 83.0555 72.6489L79.7174 73.9666C78.6632 74.4058 77.6091 73.3517 78.0483 72.2097L79.0146 69.8378C79.1024 69.3986 79.366 69.1351 79.7174 69.0472ZM44.579 71.1555C47.2144 71.4191 52.1337 71.6826 59.4249 70.892C59.952 70.8041 60.3913 71.0677 60.6548 71.5069L60.9183 71.8583C61.4454 72.6489 61.0062 73.7031 60.0399 73.8787L49.6741 75.7235C49.4105 75.7235 49.147 75.7235 48.9713 75.6357L43.9641 73.6152C43.6127 73.4395 43.3492 73.176 43.1735 72.8246C42.8221 72.034 43.6127 71.0677 44.579 71.1555ZM4.43341 63.0737L9.61632 65.8848C10.4069 66.324 10.5826 67.3781 9.87986 67.9931L6.54172 71.2434C5.7511 72.034 4.52126 71.5948 4.34557 70.5406L4.08203 68.9594C3.99419 68.2566 3.37926 67.8174 2.6765 67.9052L1.44665 67.9931C0.216812 68.0809 -0.485955 66.5875 0.392504 65.7091L2.85219 63.2494C3.20357 62.898 3.90634 62.8102 4.43341 63.0737Z"
    fill="url(#paint0_linear)" />
  <path
    d="M46.2487 67.6414C46.1609 67.5535 46.073 67.4657 45.9852 67.4657C45.7216 67.4657 45.6338 67.4657 45.6338 67.2022C45.6338 67.1143 45.5459 66.9386 45.4581 66.9386C45.3702 66.8508 45.1946 66.7629 45.1067 66.8508C45.0189 66.9386 44.8432 67.0265 44.8432 67.2022C44.8432 67.2022 44.931 67.3778 45.0189 67.3778C45.0189 67.3778 45.1067 67.4657 45.1946 67.4657L45.1067 67.5535C44.6675 67.4657 44.3161 67.3778 43.8769 67.5535C43.8769 67.5535 43.7012 67.4657 43.7012 67.3778C43.7012 67.0265 43.7012 67.0265 44.2282 67.0265C44.4918 67.0265 44.6675 66.8508 44.6675 66.6751C44.6675 66.4115 44.7553 66.2359 44.931 66.148C45.1067 66.0602 45.3702 66.148 45.6338 66.2359C45.9852 66.3237 46.073 66.2358 45.9852 65.9723C45.9852 65.8845 45.8973 65.7966 45.8095 65.7088C45.7216 65.4452 45.8973 65.3574 46.073 65.2695C46.073 65.2695 46.4244 65.4452 46.4244 65.5331C46.3366 65.7966 46.7758 66.148 46.3365 66.4115C46.073 66.5872 46.4244 66.6751 46.5122 66.7629C46.6879 66.9386 46.7758 67.1143 46.4244 67.2022C46.3366 67.2022 46.3366 67.3778 46.2487 67.4657C46.3366 67.4657 46.4244 67.5535 46.5122 67.5535C46.9515 67.7292 46.7758 67.0265 47.215 67.1143C47.215 66.9386 47.3029 66.7629 47.215 66.6751C46.9515 66.4115 46.9515 66.2358 47.215 65.9723C47.3029 65.8845 47.3029 65.6209 47.215 65.5331C46.9515 65.1817 47.3029 65.1817 47.4785 65.0939C47.7421 65.006 47.6542 65.2695 47.7421 65.3574C48.0056 65.7088 47.9178 66.148 47.9178 66.5872C47.9178 66.6751 47.9178 66.8508 48.0056 66.9386C48.1813 67.0265 48.357 67.1143 48.5327 67.1143C48.7962 67.1143 48.7084 66.5872 49.1476 66.7629C49.3233 66.8508 49.6747 66.8508 49.8504 66.5872C49.8504 66.4994 49.9382 66.4994 49.9382 66.4115C50.0261 66.4115 50.2018 66.4115 50.2896 66.4994C50.3775 66.5872 50.2896 66.8508 50.641 66.8508C50.7288 66.8508 50.9045 67.1143 50.9045 67.1143C50.8167 67.29 50.4653 67.5535 50.4653 67.4657C50.2018 67.2022 49.7625 67.2022 49.5868 67.4657C49.3233 67.7292 48.9719 67.6414 48.7962 67.9049C47.8299 67.6414 47.0393 67.6414 46.2487 67.6414ZM47.3907 67.1143C47.3029 67.1143 47.215 67.1143 47.1272 67.1143L47.0393 67.2022C47.1272 67.2022 47.215 67.29 47.3029 67.29C47.3907 67.2022 47.3907 67.1143 47.3907 67.1143Z"
    fill="black" />
  <path
    d="M49.7626 66.1494C49.3234 65.798 49.2356 65.798 49.5869 65.5344C50.0262 65.1831 50.114 64.7438 50.2019 64.3046C50.2019 64.2167 50.2897 64.2168 50.3776 64.1289C50.4654 64.2168 50.5532 64.3046 50.5532 64.3924C50.5532 64.4803 50.5532 64.656 50.4654 64.7438C50.2019 65.0952 50.7289 65.1831 50.6411 65.4466C50.8168 65.4466 50.9925 65.4466 51.1682 65.3588C51.5195 65.1831 51.6074 65.2709 51.5195 65.5344C51.5195 65.6223 51.5195 65.7101 51.5195 65.7101C51.7831 65.798 52.2223 65.7101 52.1345 66.3251C52.0466 66.5886 52.3102 66.8521 52.3102 67.2035C52.3102 67.3792 52.5737 67.5549 52.8372 67.3792C52.8372 67.3792 52.9251 67.3792 53.0129 67.3792C53.3643 67.3792 53.2765 67.5549 53.2765 67.7306C52.1345 67.7306 51.0803 67.7306 49.9383 67.7306C50.0262 67.6427 50.0262 67.5549 50.114 67.5549C50.3775 67.5549 50.6411 67.5549 50.9046 67.5549C51.4317 67.5549 51.4317 67.5549 51.3439 66.94C51.3439 66.5886 51.256 66.4129 50.9046 66.3251C50.9925 65.8858 50.3776 66.1494 50.3776 65.798C50.3776 65.6223 50.2019 65.7101 50.114 65.798C50.0262 65.8858 49.8505 65.9737 49.7626 66.1494Z"
    fill="black" />
  <path
    d="M53.8913 66.4991C54.1548 66.4112 54.5062 66.5869 54.7697 66.3234C54.9454 66.1477 55.3846 66.4112 55.6482 66.1477C55.9996 65.8842 56.0874 66.4991 56.4388 66.4991C56.5266 66.4991 56.7023 66.6748 56.7023 66.6748C56.9659 66.4112 57.1416 66.5869 57.3173 66.7626C57.4929 66.9383 57.4929 66.8505 57.5808 66.6748C57.5808 66.4112 57.8443 66.5869 57.9322 66.4991C58.02 66.6748 58.02 66.8505 58.1079 67.0261C57.9322 67.0261 57.7565 66.9383 57.7565 67.2018C57.6686 67.2897 57.4929 67.3775 57.4929 67.3775C57.0537 67.114 56.7023 67.5532 56.2631 67.3775C56.2631 67.3775 56.2631 67.2018 56.2631 67.0261C56.0874 67.0261 55.9117 66.9383 55.736 67.114C55.4725 67.4654 55.3846 67.4654 55.1211 67.0261C54.8576 66.7626 54.5062 66.7626 54.2426 67.0261V67.114C54.3305 67.114 54.3305 67.2018 54.4183 67.114C54.7697 67.0261 54.7697 67.2018 54.7697 67.4654C54.5062 67.4654 54.2426 67.4654 53.9791 67.4654C53.9791 67.3775 53.9791 67.3775 53.8913 67.2897C53.7156 67.2018 53.452 67.3775 53.3642 67.114C53.2763 66.8505 53.452 66.7626 53.6277 66.5869C53.8034 66.6748 53.8034 66.5869 53.8913 66.4991Z"
    fill="black" />
  <path
    d="M87.8877 61.1415C86.9214 61.5807 85.8672 61.9321 84.9009 62.2835C84.1103 62.547 83.3197 62.8106 82.5291 63.1619C82.4412 63.1619 82.3534 63.1619 82.1777 63.1619C82.1777 63.0741 82.2655 62.9863 82.2655 62.8106C82.2655 62.7227 82.3534 62.7227 82.3534 62.6349C82.7926 62.7227 82.9683 62.547 83.0562 62.1956C83.144 62.1078 83.0562 61.9321 83.144 61.7564C83.2318 61.6686 83.4075 61.5807 84.1103 61.5807C84.7252 61.6686 84.8131 61.6686 84.9009 61.6686C84.9888 61.6686 85.0766 61.5807 85.0766 61.4929V61.3172C84.9009 61.2293 84.7252 61.0536 84.6374 61.0536C84.286 61.1415 84.0225 61.2293 83.6711 61.2293L83.5832 61.3172L83.6711 61.405C84.1103 61.3172 84.3738 61.6686 84.1982 61.4929C82.9683 61.2293 82.5291 61.8443 81.9142 61.7564L81.8263 61.8443L81.9142 61.9321C82.002 61.9321 82.1777 61.9321 82.2655 61.9321C82.5291 62.02 82.5291 62.2835 82.3534 62.4592C82.0899 62.4592 81.8263 62.4592 81.5628 62.3713C81.3871 61.6686 81.3871 62.1956 81.2992 62.3713C81.2114 62.4592 81.0357 62.547 81.2992 62.6349C81.4749 62.6349 81.6506 62.6349 81.7385 62.7227C81.8263 62.8106 81.9142 62.8984 81.9142 62.9863C81.9142 62.9863 81.7385 63.0741 81.6506 63.1619C81.4749 63.2498 81.3871 63.3376 81.2114 63.3376C81.0357 63.4255 80.86 63.2498 80.9479 63.0741C81.0357 62.8984 81.2114 62.7227 80.7722 62.7227C80.5965 62.7227 80.3329 62.7227 80.2451 62.7227C80.0694 62.8106 79.8059 62.9863 80.0694 63.2498C80.2451 63.5133 80.2451 63.689 79.8937 63.6012C79.4545 63.5133 79.1909 64.1283 78.7517 63.689C78.7517 63.689 78.576 63.8647 78.4003 63.8647C78.2246 63.9526 78.0489 64.1283 77.8732 64.0404C77.6097 63.9526 77.6097 63.7769 77.6097 63.5133C77.6097 63.2498 77.5219 62.8984 77.9611 62.8984C77.6976 62.7227 77.9611 62.547 77.9611 62.3713C78.0489 62.3713 78.1368 62.3713 78.2246 62.3713C78.4003 62.547 78.6639 62.547 78.9274 62.547C79.0152 62.6349 79.0152 62.8106 79.1031 62.8984C79.0152 62.8984 79.0152 62.8984 78.9274 62.9863C79.0152 62.9863 79.0152 63.0741 79.1909 63.1619C79.2788 63.1619 79.1909 63.162 79.1909 63.0741L79.1031 63.1619L79.1909 63.2498C79.1909 63.2498 79.1909 63.2498 79.1909 63.1619C79.1031 63.0741 79.1031 62.9863 79.1031 62.8984C79.1909 62.8106 79.2788 62.8106 79.3666 62.7227C79.5423 62.547 79.3666 62.547 79.2788 62.547C79.1909 62.547 79.0152 62.547 78.9274 62.547C79.1031 62.1078 78.6639 61.9321 78.4882 61.6686C78.3125 61.4929 78.3125 61.405 78.576 61.3172C78.8396 61.1415 79.1031 60.878 79.3666 60.7023C79.4545 60.6144 79.6302 60.6144 79.6302 60.6144C79.718 60.7023 79.718 60.7901 79.718 60.878C79.718 60.9658 79.6302 61.1415 79.5423 61.1415C79.3666 61.3172 79.1909 61.4929 79.3666 61.7564C79.5423 62.02 79.8059 62.0199 80.0694 62.0199C80.1572 62.0199 80.3329 62.0199 80.4208 62.0199V61.9321C80.0694 61.5807 80.5086 61.3172 80.5965 61.0536C80.5965 60.7901 80.6843 60.7901 80.4208 60.7901C80.3329 60.7901 80.3329 60.4387 80.4208 60.3509C80.4208 60.3509 80.6843 60.263 80.7722 60.263C81.0357 60.3509 80.86 60.5266 80.9479 60.7023C80.9479 60.7901 80.9479 60.878 81.0357 60.9658C81.1235 60.9658 81.2114 60.878 81.2114 60.878C81.5628 60.7023 81.5628 60.6144 82.1777 60.5266C82.2655 60.5266 82.4412 60.4387 82.4412 60.5266C82.7926 61.0536 83.0562 60.7023 83.3197 60.4387C83.4075 60.4387 83.4075 60.3509 83.4954 60.3509C83.6711 60.7901 83.9346 60.3509 84.1982 60.4387C84.3738 60.5266 84.4617 60.6144 84.5495 60.4387C84.5495 60.3509 84.5495 60.263 84.4617 60.1752C84.3738 60.0873 84.286 59.8238 84.1103 60.0873C84.1103 60.0873 84.0225 60.1752 83.9346 60.1752C83.6711 60.1752 83.5832 59.9116 83.7589 59.6481C83.8468 59.6481 83.8468 59.6481 84.1982 59.6481C84.286 59.736 84.286 59.736 84.1982 59.6481C84.1103 59.736 84.0225 59.8238 83.9346 59.9116C84.0225 59.9116 84.1103 59.9995 84.1982 59.9995C84.286 59.9995 84.3738 59.9116 84.1982 59.8238C83.9346 59.736 83.9346 59.736 83.9346 59.6481C83.9346 59.736 83.8468 59.736 83.8468 59.8238C83.7589 59.8238 83.6711 59.8238 83.5832 59.8238C83.2318 59.9116 83.2318 59.6481 83.2318 59.4724C83.3197 59.3846 83.4075 59.3846 83.4075 59.2967C83.7589 58.7697 83.7589 58.7697 84.1982 59.2089C84.4617 59.4724 84.7252 59.2089 84.9009 59.2967C85.1645 59.3846 85.3401 59.5603 85.5158 59.2967C85.5158 59.2089 85.6915 59.2967 85.7794 59.2967C85.8672 59.3846 85.9551 59.4724 86.0429 59.4724C86.2186 59.4724 86.3943 59.4724 87.2728 59.0332C87.9755 58.5061 87.9755 58.4183 87.9755 58.3304C87.9755 58.1547 87.8877 58.1547 87.7998 58.2426C87.5363 58.5061 87.2728 58.6818 86.8335 58.5061C86.8335 58.5061 86.7457 58.594 86.6578 58.594C86.7457 58.594 86.7457 58.6818 86.8335 58.6818C86.9214 58.7697 87.0092 58.8575 87.0971 58.9453C87.1849 59.0332 87.1849 59.2089 87.2728 59.2967C87.1849 59.2967 87.0092 59.2967 86.9214 59.3846C86.8335 59.3846 86.8335 59.4724 86.7457 59.4724C86.8335 59.4724 86.8335 59.5603 86.9214 59.5603C87.0971 59.5603 87.2728 59.5603 87.4484 59.5603C87.7998 59.4724 87.7998 59.736 87.7998 59.9116C87.7998 59.9116 87.8877 59.9995 87.9755 59.9995C88.0634 59.9117 88.1512 59.9116 88.1512 59.8238C88.1512 59.736 88.0634 59.736 88.0634 59.6481C87.8877 59.4724 87.7998 59.2967 87.6241 59.0332C87.5363 58.9453 87.6241 58.7696 87.6241 58.594C87.712 58.594 87.8877 58.594 87.9755 58.6818C88.1512 58.6818 88.1512 58.6818 87.4484 58.8575C86.6578 59.2089 86.6578 59.121 86.57 59.121C86.3943 59.121 86.2186 59.121 86.0429 59.121C86.0429 58.8575 86.2186 58.594 85.6915 58.5061C85.6915 58.5061 85.6915 58.3304 85.6915 58.2426C85.9551 57.8033 86.4821 57.6277 86.8335 57.7155C87.2728 57.8033 87.6241 57.6277 88.0634 57.7155C88.2391 57.7155 88.4148 57.8033 88.5904 57.8912C88.6783 58.0669 88.6783 58.3304 88.7661 58.5061C88.7661 58.594 88.854 58.594 89.5568 59.2089C89.9081 59.6481 89.7324 59.3846 89.5568 59.3846C89.0297 59.3846 89.2054 59.121 89.1175 58.8575C89.1175 58.7697 89.0297 58.6818 89.0297 58.594C89.0297 58.6818 88.9418 58.7697 88.9418 58.8575C88.854 59.0332 88.5904 59.121 88.5904 59.2089C88.6783 59.3846 88.854 59.4724 89.1175 59.4724C89.2054 59.4724 89.3811 59.6481 89.4689 59.736C89.6446 59.8238 89.7324 58.7697 89.9081 58.8575C89.996 58.8575 89.996 59.8238 89.4689 59.2089C88.9418 58.5061 88.9418 58.3304 89.0297 58.2426C89.1175 57.979 89.1175 57.8912 88.7661 57.8912C88.6783 57.8912 88.5904 57.8912 88.5026 57.8912C88.5904 57.7155 88.3269 57.2763 88.854 57.3641C88.9418 57.3641 89.1175 57.2763 89.1175 57.1884C89.1175 56.9249 89.0297 56.7492 89.0297 56.4857C89.0297 56.2221 89.1175 56.0464 89.1175 55.7829C89.1175 55.7829 89.0297 55.7829 88.9418 55.695C88.854 55.4315 89.0297 55.2558 89.2054 55.168C89.2932 55.168 89.4689 55.2558 89.4689 55.2558C89.3811 55.8707 89.9081 55.8707 90.2595 56.0464C90.2595 56.31 90.1717 56.6614 90.6988 56.5735C90.7866 56.5735 90.8744 56.7492 91.0501 56.837C90.9623 56.9249 90.7866 57.1006 90.6988 57.1006C90.4352 57.1884 90.1717 57.1006 89.7324 56.5735C89.5567 56.4857 89.7324 56.837 89.8203 56.9249H89.9081C89.8203 56.7492 89.7324 56.5735 89.7324 56.3978C89.7324 56.31 89.7324 56.2221 89.7324 56.1343L89.6446 56.0464L89.5568 56.1343C89.5568 56.2221 89.5567 56.2221 89.7324 56.6613C89.8203 57.2763 90.1717 57.6277 89.6446 57.8033C89.2932 57.8912 89.8203 58.0669 89.8203 58.3304C89.8203 58.594 90.0838 58.5061 90.1717 58.5061C90.2595 58.5061 90.3474 58.3304 90.3474 58.2426C90.4352 57.979 90.5231 57.6277 90.6988 57.6277L87.8877 61.1415ZM86.3065 60.878C86.2186 60.878 86.1308 60.7901 86.1308 60.7901C86.0429 60.7901 85.9551 60.7901 85.9551 60.878C85.8672 60.9658 85.8672 61.0536 85.7794 61.1415C85.6915 61.2293 85.6037 61.2293 85.5158 61.2293C85.6037 61.3172 85.6915 61.405 85.7794 61.4929C85.8672 61.4929 86.0429 61.4929 86.0429 61.4929C86.1308 61.3172 86.2186 61.1415 85.8672 60.4387C85.8672 60.3509 85.8672 60.1752 85.8672 60.0873C85.8672 59.9995 85.6915 59.9116 85.6037 59.9116C85.428 59.9116 85.2523 59.9117 85.0766 59.9995C84.9888 59.9995 84.9009 60.1752 84.9009 60.263C84.9009 60.263 85.0766 60.4387 85.1645 60.4387C85.428 60.4387 85.6915 60.3509 85.6915 60.7901L85.7794 60.878L85.8672 60.7901C85.8672 60.6144 85.8672 60.5266 86.3065 60.878ZM81.5628 61.5807C81.4749 61.5807 81.3871 61.5807 81.2992 61.5807L81.2114 61.6686C81.2992 61.6686 81.3871 61.7564 81.4749 61.7564C81.4749 61.6686 81.5628 61.5807 81.5628 61.5807ZM87.9755 59.2089L87.8877 59.121L87.7998 59.2089C87.8877 59.2089 87.8877 59.2089 87.9755 59.2089C87.9755 59.2967 87.9755 59.2089 87.9755 59.2089Z"
    fill="black" />
  <path
    d="M91.2254 57.1889C91.1375 56.9254 91.1375 56.6618 90.7861 56.574C90.7861 56.574 90.7861 56.3105 90.7861 56.1348"
    fill="black" />
  <path
    d="M64.96 65.5341C65.1357 65.5341 65.3113 65.5341 65.5749 65.5341C65.8384 65.5341 66.0141 65.4462 66.1898 65.1827C66.3655 64.9191 66.5412 64.9191 66.8047 65.1827C66.9804 65.4462 67.244 65.5341 67.5953 65.5341C67.6832 65.5341 67.771 65.5341 67.771 65.5341C67.771 65.4462 67.771 65.2705 67.8589 65.1827C67.8589 65.0948 67.9467 65.007 68.0346 65.007C68.1224 65.007 68.2981 65.007 68.1224 64.8313C67.9467 64.6556 68.1224 64.6556 68.2103 64.5678C68.4738 64.3921 69.1766 64.3921 69.2644 64.6556C69.3523 65.007 69.6158 65.007 69.8793 65.007C70.4943 64.9191 71.0213 65.2705 71.5484 65.3584C71.7241 65.3584 71.7241 65.7098 71.5484 65.7098C71.3727 65.7098 71.1092 65.9733 70.8456 65.6219C70.7578 65.4462 70.5821 65.4462 70.4064 65.7098C70.3186 65.8855 70.055 65.9733 69.8793 66.0611L69.7036 65.9733C69.7036 65.8854 69.7036 65.7976 69.7915 65.7098C69.8793 65.7098 70.055 65.7098 70.1429 65.7098C70.1429 65.7098 70.1429 65.6219 70.2307 65.6219C69.9672 65.5341 69.7915 65.4462 69.5279 65.4462C69.3523 65.4462 69.1766 65.6219 69.0887 65.7098V65.8854C69.2644 66.0611 69.3523 66.0611 69.0009 66.2368C68.6495 66.4125 68.5616 66.3247 68.2981 66.149C68.0346 65.8855 67.8589 65.9733 67.6832 66.4125C67.5953 66.6761 67.5075 66.6761 67.1561 66.3247C67.1561 66.2368 67.1561 66.3247 67.0683 66.3247L67.1561 66.4125L67.244 66.3247C67.244 66.3247 67.244 66.3247 67.1561 66.3247C66.9804 66.4125 66.8047 66.4125 66.7169 66.3247C66.5412 66.149 66.3655 66.149 66.2776 66.3247C66.102 66.5882 65.8384 66.6761 65.5749 66.4125H65.3992C65.0478 66.7639 64.96 66.3247 64.96 66.149C64.96 65.9733 64.96 65.7098 64.96 65.5341ZM66.5412 65.9733C66.5412 65.8854 66.5412 65.7976 66.5412 65.7098L66.4533 65.6219C66.4533 65.7098 66.3655 65.7976 66.3655 65.8854C66.3655 65.8854 66.4533 65.8854 66.5412 65.9733ZM68.386 65.5341C68.386 65.5341 68.386 65.6219 68.2981 65.7098C68.386 65.7098 68.386 65.7976 68.4738 65.7976C68.5616 65.7976 68.5616 65.7098 68.6495 65.7098C68.6495 65.6219 68.5616 65.6219 68.386 65.5341ZM68.7373 65.0948C68.6495 65.007 68.6495 65.007 68.5616 65.007C68.4738 65.007 68.386 65.0948 68.2981 65.0948C68.386 65.0948 68.386 65.1827 68.4738 65.1827C68.5616 65.1827 68.6495 65.1827 68.7373 65.0948Z"
    fill="black" />
  <path
    d="M57.2294 65.0059C57.6686 65.2694 58.02 65.3572 58.2835 65.6208C58.547 65.8843 58.8984 65.3572 59.0741 65.6208C59.2498 65.9722 59.4255 65.9722 59.689 65.8843L59.7769 65.7965C59.8647 65.8843 60.0404 65.8843 60.1283 65.9722C60.1283 66.06 60.1283 66.2357 60.0404 66.2357C59.8647 66.3235 59.689 66.3235 59.5134 66.4114C59.2498 66.7628 58.9863 66.7628 58.8106 66.4114C58.7227 66.3235 58.547 66.2357 58.4592 66.2357C58.1957 66.6749 57.8443 66.2357 57.5807 66.2357C57.3172 66.2357 57.0537 66.1479 57.3172 65.7086C57.4051 65.5329 57.2294 65.4451 57.0537 65.4451C57.0537 65.4451 56.9658 65.2694 56.9658 65.1815C57.0537 65.1815 57.1415 65.0937 57.2294 65.0059Z"
    fill="black" />
  <path
    d="M61.533 64.3046C61.7966 64.3925 62.1479 64.4803 62.3236 64.656C62.4993 64.7439 62.5872 64.9196 62.8507 64.8317C62.9386 64.8317 63.0264 65.0074 63.0264 65.0074C63.0264 65.4466 63.2021 65.7102 63.4656 66.0616C63.5535 66.1494 63.6413 66.4129 63.6413 66.5008C63.6413 66.5886 63.4656 66.94 63.2021 66.6765C63.1143 66.5886 62.7629 66.5886 63.0264 66.8522C62.9386 66.8522 62.9386 66.94 62.8507 66.94C62.5872 66.94 62.4115 66.94 62.148 66.94C62.0601 66.94 61.9723 66.8522 61.8844 66.8522C61.9723 66.7643 62.1479 66.6765 62.2358 66.6765C62.4993 66.8522 62.675 66.8522 62.675 66.5008C62.675 66.4129 62.8507 66.1494 62.8507 66.1494C62.5872 65.8859 62.7629 65.5345 62.675 65.271C62.5872 65.0953 62.4115 65.0074 62.3236 64.9196C62.1479 64.8317 61.8844 64.9196 61.6209 64.9196C61.4452 64.9196 61.1816 65.0953 61.1816 64.7439C61.1816 64.5682 61.3573 64.3925 61.4452 64.2168C61.3573 64.3046 61.4452 64.3046 61.533 64.3046Z"
    fill="black" />
  <path
    d="M65.0478 63.7766C64.96 63.9523 64.96 64.128 64.8722 64.2158C65.1357 64.3037 65.3992 64.3915 65.4871 64.3915C65.6628 64.3037 65.9263 64.2158 66.102 64.3036C66.1898 64.3915 66.0141 64.655 65.9263 64.8307C65.8385 65.0064 65.7506 65.0064 65.5749 64.9186C65.3992 64.7429 65.3114 64.5672 64.96 64.8307C64.8722 64.9186 64.6965 64.7429 64.5208 64.7429C64.1694 64.655 63.818 64.8307 63.7302 65.1821C63.7302 65.4456 63.4666 65.4456 63.2909 65.4456C63.2031 65.4456 63.1152 65.27 63.1152 65.27C63.5545 64.655 63.9937 64.128 64.6086 63.6887H64.7843C64.96 63.6009 64.96 63.6887 65.0478 63.7766Z"
    fill="black" />
  <path
    d="M52.9247 67.2036C52.8368 66.7644 52.749 66.5887 52.6611 66.413C53.1004 66.2373 53.1004 65.5346 53.7153 65.5346C53.7153 65.4467 53.7153 65.3589 53.7153 65.3589C53.4517 65.0953 53.3639 64.744 53.4517 64.4804C53.4517 64.4804 53.5396 64.3926 53.6274 64.3926C53.7153 64.3926 53.8031 64.3926 53.8031 64.4804C53.891 64.6561 53.891 64.8318 53.9788 65.0075C54.1545 65.4467 54.1545 65.4467 54.5937 65.1832C54.7694 65.0075 54.8573 65.0953 54.9451 65.1832C55.1208 65.3589 54.9451 65.3589 54.8573 65.4467C54.6816 65.5346 54.5059 65.6224 54.4181 65.7103C54.3302 65.7981 54.2424 66.0616 53.9788 65.7981C53.891 65.886 53.891 65.9738 53.891 66.0616C53.891 66.3252 53.9788 66.5887 53.4517 66.5009C53.3639 66.5009 53.2761 66.6766 53.1882 66.7644C53.1882 66.9401 53.1004 67.028 52.9247 67.2036Z"
    fill="black" />
  <path
    d="M71.0211 64.5674C70.9333 64.6553 70.8454 64.7431 70.7576 64.7431C70.6697 64.7431 70.5819 64.7431 70.5819 64.7431C70.494 64.6553 70.3184 64.5674 70.2305 64.5674C70.0548 64.5674 70.0548 64.9188 69.7913 64.7431C69.6156 64.6553 69.6156 64.4796 69.6156 64.3039C69.5277 63.9525 69.2642 63.8647 68.9128 64.1282C68.7371 64.3039 68.6493 64.216 68.4736 64.1282C68.3857 63.9525 68.2979 63.8647 68.5614 63.7768C68.6493 63.7768 68.7371 63.7768 68.7371 63.7768C69.0007 63.6011 69.2642 63.4254 69.0007 62.9862C69.0007 62.8983 69.0885 62.8105 69.0885 62.7227C69.1764 62.8105 69.352 62.8105 69.4399 62.8983C69.5277 62.9862 69.5277 63.1619 69.6156 63.3376C69.6156 63.5133 69.6156 63.7768 69.7034 63.8646C69.8791 64.0403 70.1427 64.216 70.3184 64.3039C70.494 64.3917 70.6697 64.4796 70.8454 64.6553C71.0211 64.4796 71.0211 64.4796 71.0211 64.5674Z"
    fill="black" />
  <path
    d="M66.5406 63.0738C66.5406 63.3374 66.8042 63.6009 67.0677 63.4252C67.2434 63.3373 67.3313 63.2495 67.4191 63.4252C67.4191 63.513 67.3312 63.6009 67.3312 63.7766C67.3312 63.8644 67.3313 63.9523 67.4191 63.9523C67.5069 64.128 67.7705 64.2158 67.5948 64.3915C67.4191 64.5672 67.2434 64.655 66.9799 64.8307C66.892 64.7429 66.8042 64.5672 66.8042 64.5672C67.1556 64.2158 66.8042 64.128 66.6285 64.128C66.2771 64.128 66.1014 63.9523 65.9257 63.6887C65.8379 63.6009 65.8379 63.4252 65.9257 63.4252C66.1893 63.0738 66.0136 62.8981 65.8379 62.6346C65.8379 62.6346 65.75 62.4589 65.8379 62.4589C65.9257 62.371 66.1014 62.2832 66.2771 62.2832C66.2771 62.371 66.3649 62.371 66.3649 62.4589C66.4528 62.6346 66.4528 62.8981 66.5406 63.0738Z"
    fill="black" />
  <path
    d="M77.8731 62.8097C77.6974 62.634 77.2582 62.634 77.6974 62.2826C77.6974 62.2826 77.6095 62.1069 77.6095 62.0191C77.5217 61.9312 77.4339 61.9312 77.2582 61.8434C77.1703 61.8434 77.0825 61.8434 76.9946 61.8434C76.9068 61.9312 76.9068 62.0191 76.9068 62.1069C76.9946 62.2826 76.9946 62.3705 77.0825 62.4583C77.2582 62.634 77.0825 63.0732 76.8189 63.0732C76.7311 63.0732 76.5554 63.0732 76.4675 62.9854C76.4675 62.9854 76.4675 62.8097 76.4675 62.7219C76.6432 62.5462 76.6432 62.4583 76.4675 62.2826C76.2919 62.1069 76.0283 61.9312 76.3797 61.6677C76.2919 61.5799 76.204 61.5799 76.1162 61.492C76.0283 61.4042 76.0283 61.3163 76.0283 61.2285C76.0283 61.2285 76.204 61.1406 76.2919 61.1406C76.8189 61.492 77.346 61.492 77.9609 61.492C78.0488 61.492 78.1366 61.7556 78.1366 61.7556C77.8731 61.9312 77.9609 62.2826 77.9609 62.5462C78.0488 62.7219 77.9609 62.8097 77.8731 62.8097Z"
    fill="black" />
  <path
    d="M71.3722 63.776C71.2843 63.8638 71.1965 63.9517 71.0208 63.9517C70.9329 63.9517 70.7572 63.9517 70.6694 63.8638C70.5816 63.776 70.5816 63.6003 70.6694 63.5125C70.7572 63.4246 70.8451 63.2489 70.9329 63.1611C71.0208 62.9854 71.1086 62.9854 71.2843 63.1611C71.5479 63.3368 71.6357 63.776 72.0749 63.776L72.1628 63.9517C71.8992 64.2152 72.1628 64.3031 72.2506 64.4788C72.3385 64.6544 72.3385 64.7423 72.1628 64.8301C71.7235 65.0937 71.7235 65.0937 71.2843 64.7423C71.1965 64.6544 71.0208 64.4788 70.9329 64.3909C71.1086 64.3031 71.2843 64.2152 71.3722 64.1274C71.3722 64.1274 71.46 64.0395 71.3722 63.9517C71.46 63.8638 71.3722 63.776 71.3722 63.776Z"
    fill="black" />
  <path
    d="M87.3605 56.6618C87.4484 56.6618 87.5362 56.5739 87.7119 56.4861C87.7998 56.4861 87.9754 56.6617 88.0633 56.7496C88.0633 56.7496 87.9754 56.9253 87.8876 57.0131C87.6241 57.101 87.2727 57.1888 87.0091 57.1888C86.7456 57.1888 86.4821 56.9253 86.1307 57.0131C85.8671 57.0131 85.5158 56.4861 85.6036 56.2225C85.6036 56.1347 85.6914 56.1347 85.7793 56.0468C85.8671 56.0468 85.955 55.959 85.955 56.0468C86.0428 56.1347 86.1307 56.2225 86.1307 56.3104C86.2185 56.6617 86.3064 56.3982 86.3942 56.3104C86.4821 56.2225 86.5699 56.0468 86.6578 55.959C86.8334 56.1347 87.097 56.2225 86.8334 56.4861V56.6618C86.9213 56.6618 87.097 56.6618 87.3605 56.6618Z"
    fill="black" />
  <path
    d="M74.535 64.5682C74.535 64.7439 74.535 64.8318 74.535 64.9196C74.535 65.0953 74.4471 65.1831 74.2714 65.1831C73.92 65.0953 73.5687 65.1832 73.3051 65.3588C72.9537 65.6224 72.6024 65.4467 72.3388 65.5345L72.251 65.4467C72.3388 65.4467 72.3388 65.3588 72.4267 65.3588C72.6024 65.1832 73.0416 65.0075 73.0416 64.7439C73.1294 64.3047 73.393 64.3047 73.5687 64.4804C73.8322 64.6561 73.92 64.6561 74.0957 64.4804C74.1836 64.3925 74.3593 64.3047 74.4471 64.3047C74.535 64.3925 74.535 64.5682 74.535 64.5682Z"
    fill="black" />
  <path
    d="M81.9134 59.9996C81.9134 59.9996 82.0891 59.9996 82.0891 60.0874C82.177 60.1753 82.177 60.351 82.0891 60.4388C82.0891 60.5267 81.8256 60.5267 81.7377 60.4388C81.4742 60.2631 80.8593 60.351 80.8593 59.8239C80.8593 59.8239 80.8593 59.8239 80.7714 59.7361L80.6836 59.209C80.7714 59.1211 80.7714 58.9454 80.8593 58.9454C81.035 58.8576 80.9471 58.5062 81.2107 58.5941C81.5621 58.6819 81.7377 59.1211 81.5621 59.3847C81.3864 59.5604 81.4742 59.8239 81.4742 59.9996C81.5621 60.0874 81.5621 60.0874 81.9134 59.9996Z"
    fill="black" />
  <path
    d="M75.1499 65.0075C75.062 65.0075 75.062 65.0075 74.9742 65.0075C74.8863 65.0075 74.8863 65.0075 74.7985 64.9197C74.7985 64.8318 74.8863 64.8318 74.8863 64.744C74.9742 64.6561 75.062 64.4804 75.1499 64.3926C75.062 64.3047 74.8863 64.3047 74.7985 64.2169C74.535 63.9534 74.3593 63.7777 74.0079 64.1291C73.92 64.2169 73.6565 64.1291 73.6565 64.0412C73.5687 63.9534 73.6565 63.7777 73.7443 63.602C73.8322 63.5141 74.0079 63.3384 74.0957 63.4263C74.3593 63.5141 74.6228 63.602 74.8863 63.7777C75.1499 63.9534 75.2377 64.1291 75.5891 64.1291C75.677 64.1291 75.9405 64.4804 75.9405 64.6561C75.9405 64.8318 75.7648 65.0075 75.5013 65.0075C75.3256 65.0075 75.2377 65.0075 75.1499 65.0075Z"
    fill="black" />
  <path
    d="M82.6164 57.6285C82.7043 57.6285 82.7921 57.5406 82.9678 57.5406C83.2314 57.4528 83.2314 57.7163 83.3192 57.8042C83.3192 57.8042 83.2314 57.9798 83.1435 57.9798C82.88 58.0677 82.6164 58.0677 82.4408 58.2434C82.0894 58.5948 81.9137 58.2434 81.738 58.1555C81.4744 58.0677 81.6501 57.8042 81.6501 57.6285C81.6501 57.4528 81.738 57.2771 81.8258 57.1014C81.8258 57.0135 81.9137 56.9257 82.0015 56.9257C82.1772 56.9257 82.3529 56.9257 82.5286 56.75C82.5286 56.75 82.7921 56.75 82.7921 56.8378C82.7921 56.9257 82.88 57.1014 82.7921 57.1892C82.7921 57.2771 82.6164 57.2771 82.5286 57.2771C82.4408 57.2771 82.2651 57.0135 82.2651 57.2771C82.2651 57.3649 82.1772 57.6285 82.4408 57.6285C82.4408 57.6285 82.4408 57.6285 82.6164 57.6285Z"
    fill="black" />
  <path
    d="M61.709 66.9386C61.5333 67.0265 61.3576 67.1143 61.1819 67.2022C61.1819 67.2022 61.0941 67.0265 61.0062 66.9386C60.9184 67.0265 60.9184 67.2022 60.8305 67.2022C60.4791 67.2022 60.1277 67.3779 59.8642 67.0265C59.7764 66.9386 59.7764 66.8508 59.7764 66.6751C59.8642 66.6751 60.0399 66.6751 60.1278 66.6751C60.2156 66.6751 60.3034 66.763 60.3034 66.8508C60.3913 66.9386 60.567 67.0265 60.4791 66.8508C60.3913 66.4994 61.0062 66.148 60.4791 65.7967C60.4791 65.7967 60.567 65.5331 60.6548 65.4453C60.6548 65.3574 60.7427 65.3574 60.8305 65.3574C60.9184 65.3574 61.0062 65.4453 61.0062 65.4453C60.8305 65.9723 61.5333 66.3237 61.4454 66.8508C61.5333 66.8508 61.6211 66.9386 61.709 66.9386Z"
    fill="black" />
  <path
    d="M42.2956 67.0271C41.9442 67.1149 41.7685 67.0271 41.7685 66.6757C41.7685 66.5878 41.6806 66.5 41.6806 66.4121C41.6806 66.5 41.5928 66.5878 41.5928 66.6757C41.5928 66.9392 41.505 67.0271 41.2414 66.9392C41.0657 66.9392 40.89 66.8514 40.7143 66.7635C40.5387 66.6757 40.0994 66.9392 40.1873 66.5C40.2751 66.3243 40.5387 66.3243 40.7143 66.5C40.8022 66.5 40.89 66.5 40.89 66.5C41.0657 66.4121 41.3293 66.2365 41.505 66.1486C41.8563 65.8851 41.9442 65.8851 42.032 66.3243C42.1199 66.5 42.2077 66.6757 42.2077 66.7635C42.3834 66.9392 42.2956 67.0271 42.2956 67.0271Z"
    fill="black" />
  <path
    d="M78.9275 60.7018C78.9275 60.7018 78.8396 60.614 78.7518 60.5262C78.7518 60.4383 78.7518 60.3505 78.8396 60.3505C79.0153 60.1748 79.2788 59.9991 78.7518 59.9991C78.6639 59.9991 78.6639 59.9991 78.5761 59.9112C78.4882 59.8234 78.4004 59.7355 78.4004 59.6477C78.4882 59.5598 78.6639 59.3842 78.7518 59.3842C78.8396 59.3842 79.0153 59.5598 79.191 59.5598C79.2788 59.5598 79.5424 59.6477 79.5424 59.3842C79.6302 59.0328 79.8059 59.1206 79.9816 59.2963C80.0695 59.3842 80.0695 59.472 80.1573 59.6477C80.0695 59.6477 79.9816 59.7355 79.8938 59.7355C79.8059 59.7355 79.5424 59.6477 79.7181 59.9112C79.8059 60.0869 79.8059 60.3505 79.8059 60.3505C79.3667 60.614 79.191 60.614 78.9275 60.7018Z"
    fill="black" />
  <path
    d="M77.5216 63.7773C77.5216 64.1286 76.9067 64.7436 76.5553 64.7436C76.4675 64.7436 76.3796 64.6557 76.3796 64.6557C76.2918 64.5679 76.2918 64.3922 76.1161 64.3043C75.8525 64.1286 76.1161 63.9529 76.2039 63.9529C76.4675 63.8651 76.8188 63.8651 76.9945 63.6016C76.9945 63.6016 77.2581 63.6016 77.3459 63.6016C77.3459 63.6894 77.4338 63.7773 77.5216 63.7773Z"
    fill="black" />
  <path
    d="M84.2859 56.8359C84.4616 56.8359 84.6373 56.9238 84.6373 56.9238C84.6373 57.363 85.1644 57.1873 85.2522 57.4509C85.2522 57.6266 84.9008 58.2415 84.6373 58.2415C84.5494 58.2415 84.4616 58.1536 84.4616 58.1536C84.4616 57.9779 84.4616 57.8901 84.5494 57.7144C84.6373 57.5387 84.6373 57.5387 84.4616 57.5387C84.2859 57.5387 84.1102 57.5387 84.0224 57.363C83.9345 57.2752 83.8467 57.0116 83.8467 56.9238C83.9345 56.9238 84.1981 56.9238 84.2859 56.8359Z"
    fill="black" />
  <path
    d="M75.1492 62.1074C75.3249 62.2831 75.5006 62.2831 75.5006 62.4588C75.5885 62.6345 75.5006 62.7223 75.5006 62.898C75.5006 63.0737 75.5885 63.1616 75.7642 63.1616C76.0277 63.1616 76.1155 63.1616 76.1155 63.4251C76.1155 63.6886 75.9399 63.7765 75.7642 63.8643C75.6763 63.8643 75.5885 63.7765 75.5885 63.7765C75.5885 63.513 75.5885 63.2494 75.1492 63.3373C75.0614 63.3373 74.8857 63.1616 74.7979 63.0737C74.7979 62.9859 74.8857 62.8102 74.8857 62.8102C75.3249 62.8102 75.0614 62.6345 74.9735 62.5467C74.9735 62.4588 75.0614 62.2831 75.1492 62.1074Z"
    fill="black" />
  <path
    d="M49.4107 63.161C49.4985 63.2489 49.5864 63.4245 49.6742 63.5124C49.8499 63.6881 49.8499 63.9516 49.6742 64.1273C49.5864 64.1273 49.5864 64.2152 49.4985 64.2152C49.4985 64.1273 49.4107 64.1273 49.4107 64.0395C49.4985 63.6881 49.235 63.6881 49.0593 63.5124C48.8836 63.3367 48.7079 63.0732 48.6201 62.8096C48.5322 62.6339 48.5322 62.4582 48.5322 62.2825C48.5322 62.1947 48.6201 62.1069 48.6201 62.019C48.7079 61.9312 48.7958 61.9312 48.9715 62.019C48.9715 62.019 49.0593 62.1947 48.9715 62.2825C48.8836 62.5461 48.8836 62.5461 49.1471 62.8975C49.235 63.0732 49.3228 63.0732 49.4107 63.161Z"
    fill="black" />
  <path
    d="M57.5802 63.9533C57.4923 64.0411 57.4923 64.129 57.4923 64.129C56.9652 64.129 56.526 64.2168 56.0868 64.4804C56.0868 64.4804 55.8232 64.3925 55.8232 64.3047C55.8232 64.2168 55.9111 64.0411 55.9111 63.9533C56.1746 64.129 56.1746 64.129 56.2625 63.7776C56.2625 63.3384 56.2625 63.3384 56.7895 63.5141C57.0531 63.6019 57.2288 63.6019 57.4923 63.6898C57.4923 63.7776 57.5802 63.8654 57.5802 63.9533Z"
    fill="black" />
  <path
    d="M73.8317 62.1085C73.656 62.2842 73.3925 62.372 73.4803 62.4599C73.5682 62.987 72.9533 62.987 72.7776 63.2505C72.7776 63.3383 72.4262 63.2505 72.3383 63.1627C72.2505 63.0748 72.2505 62.8113 72.3383 62.7234C72.514 62.5477 72.6897 62.2842 73.0411 62.2842C73.3925 62.2842 73.3046 62.1085 73.3046 61.9328C73.3046 61.7571 73.3046 61.6693 73.4803 61.7571C73.5682 61.9328 73.656 62.0207 73.8317 62.1085Z"
    fill="black" />
  <path
    d="M70.494 62.0194C70.5819 62.0194 70.6697 62.0194 70.7575 62.0194C71.2846 62.195 71.2846 62.1072 71.636 61.7558C71.7238 61.668 71.8995 61.668 71.8995 61.668C71.9874 61.7558 72.0752 61.8437 72.1631 62.0194C72.1631 62.0194 72.1631 62.195 72.0752 62.195C71.7238 62.195 71.636 62.6343 71.1968 62.6343C70.6697 62.6343 70.4062 62.6343 70.2305 62.3707C70.2305 62.2829 70.2305 62.195 70.2305 62.1072C70.3183 62.1072 70.4062 62.1072 70.494 62.0194Z"
    fill="black" />
  <path
    d="M52.4858 62.9861C52.4858 63.074 52.3979 63.1618 52.3979 63.1618C52.3101 63.1618 52.1344 63.1618 52.0466 63.1618C51.9587 63.1618 51.8709 63.1618 51.783 63.2496C51.8709 63.3375 51.8709 63.4253 51.9587 63.4253C52.0466 63.5132 52.3101 63.6889 52.1344 63.8646C52.0466 63.9524 51.8709 64.1281 51.783 64.0403C51.6073 63.9524 51.4316 63.7767 51.4316 63.6889C51.4316 63.3375 51.5195 62.9861 51.6073 62.6347C51.6073 62.6347 51.6952 62.5469 51.783 62.5469C52.0466 62.6347 52.3101 62.7226 52.5736 62.8104C52.4858 62.8983 52.4858 62.8983 52.4858 62.9861Z"
    fill="black" />
  <path
    d="M84.2852 55.0796C84.2852 54.8161 84.2852 54.7282 84.2852 54.6404C84.373 54.4647 84.4609 54.2012 84.5487 54.2012C84.7244 54.2012 84.9879 54.289 85.1636 54.3769C85.2515 54.4647 85.1636 54.6404 85.1636 54.8161C84.6365 54.8161 84.9001 55.2553 84.7244 55.431C84.6365 55.5189 84.5487 55.6067 84.5487 55.6067C84.4609 55.6067 84.373 55.5189 84.373 55.431C84.373 55.2553 84.373 55.0796 84.2852 55.0796Z"
    fill="black" />
  <path
    d="M46.0727 63.6893V63.7771C45.6335 64.1285 45.7214 64.5677 45.7214 65.007C45.7214 65.1827 45.37 65.2705 45.1943 65.1827C45.1943 65.1827 45.1064 65.0948 45.1064 65.007C45.37 64.6556 45.2821 64.2164 45.2821 63.7771C45.2821 63.6014 45.7214 63.4258 45.9849 63.5136C45.9849 63.6014 46.0727 63.6014 46.0727 63.6893Z"
    fill="black" />
  <path
    d="M59.1616 64.7427C59.1616 64.8306 59.1616 65.0063 59.1616 65.0941C59.1616 65.0941 59.0738 65.182 58.9859 65.182C58.7224 65.0941 58.4588 64.9184 58.2832 64.8306C58.1953 64.7427 58.1953 64.6549 58.1953 64.4792C58.1953 64.04 58.2832 63.9521 58.8102 64.1278C59.1616 64.3913 59.1616 64.3913 59.1616 64.7427Z"
    fill="black" />
  <path
    d="M59.9524 63.3371C59.7767 63.3371 59.601 63.3371 59.601 63.2493C59.5132 63.1614 59.5132 62.8979 59.601 62.8101C59.8646 62.5465 60.0403 62.3708 59.9524 62.0194C59.9524 61.9316 60.1281 61.8438 60.1281 61.8438C60.3038 61.9316 60.3917 62.0194 60.4795 62.1073C60.1281 62.4587 60.3917 62.8979 60.1281 63.2493C60.0403 63.3371 60.0403 63.3371 59.9524 63.3371Z"
    fill="black" />
  <path
    d="M63.9051 61.668C63.993 61.668 63.993 61.7558 63.993 61.7558C64.0808 62.0194 64.3444 62.195 64.6957 62.3707C64.6957 62.3707 64.6957 62.4586 64.6957 62.5464C64.5201 62.9857 64.1687 62.3707 63.993 62.7221C63.9051 62.6343 63.7294 62.5464 63.6416 62.3707C63.6416 62.195 63.5538 61.9315 63.9051 61.668C63.9051 61.7558 63.9051 61.7558 63.9051 61.668Z"
    fill="black" />
  <path
    d="M38.6059 66.236C38.6059 66.5874 38.2545 66.8509 37.991 66.8509C37.9031 66.8509 37.8153 66.7631 37.8153 66.7631C38.0788 66.4117 37.7274 66.1482 37.8153 65.7968C37.8153 65.7089 37.9031 65.6211 37.9031 65.6211C37.991 65.6211 38.0788 65.6211 38.1667 65.7089C38.4302 65.8846 38.518 66.0603 38.6059 66.236Z"
    fill="black" />
  <path
    d="M81.035 57.8919C80.6836 57.8919 80.5079 57.9798 80.3322 57.9798C80.5079 57.6284 79.4538 57.6284 80.0687 57.1891V57.1013C79.8052 56.9256 79.893 56.7499 80.1566 56.5742H80.3322C80.5079 56.7499 80.5958 56.8378 80.4201 57.1013C80.3322 57.1891 80.3322 57.3648 80.5079 57.4527C80.5958 57.5405 80.6836 57.7162 81.035 57.8919Z"
    fill="black" />
  <path
    d="M48.0049 65.7088C48.0049 65.3574 48.0049 65.3574 48.532 65.3574C48.7955 65.3574 49.059 65.621 48.9712 65.7088C48.7955 65.8845 48.6198 66.148 48.4441 66.2359C48.2684 66.4116 48.0049 66.0602 48.0049 65.7088Z"
    fill="black" />
  <path
    d="M52.9248 64.744C52.9248 65.1832 52.9248 65.4468 52.5735 65.6225C52.3099 65.7103 52.1342 65.5346 52.2221 65.2711C52.3099 65.0954 52.3099 64.9197 52.4856 64.744C52.5735 64.6562 52.7491 64.5683 52.9248 64.4805C52.837 64.5683 52.9248 64.744 52.9248 64.744Z"
    fill="black" />
  <path
    d="M54.6811 62.107C54.6811 61.8435 54.7689 61.7556 55.0325 61.8435C55.2082 61.9313 55.3839 62.0192 55.4717 62.107C55.6474 62.1949 55.6474 62.3706 55.4717 62.4584C55.2082 62.5463 55.3839 63.0733 55.0325 62.8976C54.6811 62.8098 54.5933 62.4584 54.6811 62.107Z"
    fill="black" />
  <path
    d="M64.5203 66.1478C64.3446 66.0599 64.2567 65.9721 64.1689 65.8842C63.9932 65.7964 63.9932 65.6207 64.1689 65.5329C64.3446 65.5329 64.4324 65.445 64.4324 65.2693C64.4324 65.0936 64.4324 64.9179 64.696 65.0058C64.8716 65.0936 65.1352 65.2693 65.0473 65.445C64.9595 65.6207 64.8716 65.7964 64.8716 65.9721C64.7838 66.0599 64.6081 66.0599 64.5203 66.1478Z"
    fill="black" />
  <path
    d="M90.9617 55.7828C91.0495 55.4314 90.3468 55.6071 90.5225 55.2557C90.5225 55.1679 90.6103 55.08 90.6103 54.9922"
    fill="black" />
  <path
    d="M43.2616 66.5878C43.0859 66.8513 42.998 67.2027 42.8223 67.3784C42.7345 67.4662 42.4709 67.3784 42.3831 67.2905C42.2952 67.2027 42.3831 67.027 42.5588 66.9391C42.7345 66.8513 42.9102 66.7635 42.6466 66.5878C42.8223 66.4999 42.9102 66.3242 43.0859 66.3242C43.0859 66.3242 43.1737 66.4999 43.2616 66.5878Z"
    fill="black" />
  <path
    d="M88.6777 55.1682C88.502 55.256 88.2385 55.3438 88.2385 55.3438C87.9749 54.9046 87.6235 55.3438 87.2722 55.256C87.1843 55.256 87.0086 55.4317 86.9208 55.3438C86.8329 55.3438 86.7451 55.1682 86.6572 55.0803C86.7451 55.0803 86.8329 54.9925 86.9208 54.9925C87.36 54.9925 87.7114 54.6411 88.1506 54.8168C88.3263 54.9046 88.502 54.9925 88.6777 55.1682Z"
    fill="black" />
  <path
    d="M77.7848 60.0879C77.8726 60.1757 77.9604 60.2636 78.0483 60.3514C78.0483 60.4393 78.0483 60.7028 78.0483 60.7907C77.7848 60.8785 77.5212 60.9663 77.2577 61.0542C77.1698 61.0542 76.9941 60.9664 76.9941 60.8785C76.9941 60.7907 77.082 60.7028 77.1698 60.615C77.3455 60.3514 77.6091 60.1757 77.7848 60.0879Z"
    fill="black" />
  <path
    d="M56.351 65.3588C55.9996 65.5345 55.8239 65.7102 55.4725 65.7102C55.3847 65.7102 55.2968 65.7102 55.209 65.6223C55.209 65.5345 55.209 65.4466 55.2968 65.3588C55.3847 65.2709 55.4725 65.1831 55.5604 65.0953C55.6482 65.0074 55.6482 64.656 55.9118 64.8317C56.0874 64.9196 56.1753 65.1831 56.351 65.3588Z"
    fill="black" />
  <path
    d="M37.2007 65.7968C37.025 66.0603 37.025 66.236 36.9371 66.3239C36.8493 66.4117 36.6736 66.6752 36.5857 66.6752C36.41 66.5874 36.2343 66.4117 36.3222 66.1482C36.3222 66.0603 36.4979 65.9725 36.4979 65.8846C36.4979 65.7089 36.5857 65.6211 36.7614 65.6211C36.9371 65.6211 37.1128 65.7089 37.2007 65.7968Z"
    fill="black" />
  <path
    d="M47.8292 64.0402C47.8292 64.2159 47.8292 64.2159 47.8292 64.3037C47.8292 64.4794 47.6535 64.5673 47.4778 64.4794C47.3899 64.3916 47.3021 64.3037 47.2142 64.2159C47.5656 63.9523 46.9507 63.6888 47.2142 63.4253C47.3021 63.3374 47.3899 63.3374 47.4778 63.4253C47.8292 63.5131 47.917 63.7766 47.8292 64.0402Z"
    fill="black" />
  <path
    d="M69.5274 60.1757C69.5274 60.4393 69.2638 60.7028 69.5274 60.9663L69.4395 61.142C69.3517 61.142 69.2639 61.142 69.176 61.0542C69.0882 60.9663 69.0882 60.7907 69.0003 60.7028C68.7368 60.5271 68.8246 60.3514 69.0003 60.2636C69.0882 60.1757 69.0882 60.0879 69.176 60.0879C69.2639 60.0879 69.3517 60.0879 69.4395 60.0879C69.4395 60.0879 69.4395 60.1757 69.5274 60.1757Z"
    fill="black" />
  <path
    d="M74.3592 60.7891C74.447 60.7891 74.5349 60.8769 74.5349 60.9648C74.7106 61.0526 74.8863 61.1404 74.9741 61.2283C75.062 61.3161 75.1498 61.3161 75.2376 61.404C75.1498 61.5797 75.062 61.6675 74.8863 61.7554C74.8863 61.7554 74.7106 61.6675 74.6227 61.5797C74.447 61.404 74.2714 61.2283 74.0078 61.0526C74.0078 61.0526 74.0078 60.9648 74.0078 60.8769C74.1835 60.7891 74.2713 60.7891 74.3592 60.7891Z"
    fill="black" />
  <path
    d="M73.0411 60.6142C73.2168 60.6142 73.3925 60.5264 73.4804 60.6142C73.6561 60.7021 73.8318 60.8778 73.8318 60.9656C73.8318 61.2292 73.5682 61.1413 73.3925 61.1413C73.3047 61.1413 73.129 61.1413 73.0411 61.0535C72.8654 60.9656 72.6898 60.8778 72.6898 60.7899C72.6019 60.4385 72.9533 60.6142 73.0411 60.6142Z"
    fill="black" />
  <path
    d="M63.1147 64.5676C63.0268 64.304 62.8511 64.0405 62.939 63.9526C63.1147 63.6891 63.1147 63.5134 62.939 63.2499V62.9863C63.1147 62.9863 63.2025 62.9863 63.3782 62.9863C63.3782 62.9863 63.4661 63.162 63.4661 63.2499C63.2025 63.5134 63.2025 63.7769 63.3782 64.1283C63.3782 64.2162 63.2025 64.3919 63.1147 64.5676Z"
    fill="black" />
  <path
    d="M82.8806 60.6145C82.5292 60.6145 82.3535 60.7024 82.3535 60.351C82.3535 60.0875 82.5292 59.8239 82.7049 59.9118C82.9684 59.9996 83.1441 60.1753 83.3198 60.351C83.1441 60.4388 82.9684 60.5267 82.8806 60.6145Z"
    fill="black" />
  <path
    d="M43.3495 65.8843C43.2617 65.7964 43.1738 65.7086 43.1738 65.5329C43.1738 65.445 43.3495 65.3572 43.4374 65.1815C43.6131 65.5329 43.8766 65.0058 44.0523 65.1815C44.1401 65.2693 44.1401 65.6207 44.0523 65.6207C43.8766 65.7964 43.6131 65.7964 43.3495 65.8843Z"
    fill="black" />
  <path
    d="M82.7927 59.4722C82.6171 59.4722 82.3535 59.5601 82.3535 59.2087C82.3535 58.9452 82.6171 58.6816 82.7927 58.6816C83.0563 58.7695 83.1441 58.9452 83.1441 59.2087C83.1441 59.6479 82.8806 59.2966 82.7927 59.4722Z"
    fill="black" />
  <path
    d="M62.4995 62.0196C62.4116 62.1075 62.4116 62.1953 62.3238 62.2832C62.1481 62.371 61.9724 62.5467 61.7967 62.6346C61.7089 62.6346 61.621 62.6346 61.5332 62.5467C61.5332 62.4589 61.4453 62.371 61.5332 62.2832C61.7089 62.1075 61.8846 61.7561 62.3238 61.8439C62.4116 61.9318 62.4116 61.9318 62.4995 62.0196Z"
    fill="black" />
  <path
    d="M79.3662 58.4177C79.4541 58.242 79.4541 58.1542 79.5419 57.9785C79.5419 57.8906 79.7176 57.8906 79.8054 57.8906C80.2447 58.1542 80.2447 58.3299 79.8054 58.5934C79.7176 58.6812 79.6297 58.6812 79.4541 58.6812C79.4541 58.5934 79.4541 58.5055 79.3662 58.4177Z"
    fill="black" />
  <path
    d="M79.9814 55.8708C80.0693 55.6072 80.1571 55.4316 80.245 55.2559C80.245 55.2559 80.5085 55.2559 80.5964 55.3437C80.6842 55.4315 80.7721 55.6072 80.7721 55.6951C80.7721 55.7829 80.5964 55.9586 80.4207 56.0465C80.3328 56.0465 80.245 56.1343 80.245 56.1343C80.1571 56.0465 80.0693 55.8708 79.9814 55.8708Z"
    fill="black" />
  <path
    d="M81.8262 56.486C81.5626 56.3981 81.2991 56.3981 81.0356 56.2224C80.9477 56.2224 80.6842 56.1346 80.8599 55.9589C80.9477 55.871 81.1234 55.7832 81.2113 55.7832C81.4748 55.871 81.6505 56.0467 81.914 56.2224C81.914 56.2224 81.914 56.3103 81.914 56.3981C81.914 56.486 81.914 56.486 81.8262 56.486Z"
    fill="black" />
  <path
    d="M53.7148 64.0402C53.8905 63.7766 53.9784 63.601 54.1541 63.4253C54.2419 63.3374 54.4176 63.3374 54.5055 63.4253C54.5933 63.4253 54.6811 63.6888 54.6811 63.6888C54.5055 63.8645 54.3298 64.128 54.0662 64.3037C54.0662 64.3037 53.8905 64.3037 53.8905 64.2159C53.8027 64.128 53.7148 64.0402 53.7148 64.0402Z"
    fill="black" />
  <path
    d="M42.7341 65.4451C42.7341 65.5329 42.7341 65.7086 42.7341 65.7965C42.6462 65.8843 42.5584 65.8843 42.3827 65.8843C42.2948 65.8843 42.1191 65.7965 42.1191 65.7086C42.1191 65.4451 42.207 65.2694 42.2948 65.0937C42.2948 65.0059 42.4705 65.0059 42.5584 65.0059C42.6462 65.0059 42.6462 65.0937 42.7341 65.1815C42.7341 65.2694 42.7341 65.3572 42.7341 65.4451Z"
    fill="black" />
  <path
    d="M65.5748 60.1758C65.5748 60.1758 65.7505 60.2636 65.7505 60.3515C65.7505 60.4393 65.6626 60.615 65.5748 60.615C65.3991 60.7029 65.2234 60.7907 65.0477 60.7029C64.9599 60.7029 64.7842 60.5272 64.7842 60.4393C64.7842 60.3515 64.9599 60.2636 65.0477 60.1758C65.2234 60.1758 65.3991 60.1758 65.5748 60.1758Z"
    fill="black" />
  <path
    d="M44.1397 63.162C44.1397 63.3377 44.2276 63.5134 44.1397 63.6013C44.0519 63.6891 43.8762 63.8648 43.7005 63.8648C43.437 63.8648 43.5248 63.6012 43.5248 63.4256C43.5248 63.3377 43.6126 63.2499 43.7005 63.162C43.7883 63.0742 43.8762 63.0742 43.964 62.9863C44.0519 63.0742 44.0519 63.162 44.1397 63.162Z"
    fill="black" />
  <path
    d="M71.9871 59.4731C72.2507 59.4731 72.4264 59.3852 72.4264 59.7366C72.4264 60.088 72.2507 60.088 71.9871 60.088C71.8114 60.088 71.6357 60.1759 71.6357 59.8245C71.6357 59.4731 71.7236 59.3852 71.9871 59.4731Z"
    fill="black" />
  <path
    d="M58.1951 67.0278C58.3708 67.0278 58.4586 66.9399 58.6343 66.8521C58.8979 66.6764 58.9857 66.8521 59.0735 67.0278C59.2492 67.2913 58.8979 67.2035 58.81 67.2035C58.2829 67.467 58.1951 67.467 57.7559 67.2035C57.9316 67.2035 58.1072 67.2913 58.1951 67.0278Z"
    fill="black" />
  <path
    d="M31.8416 65.1831C31.7537 65.1831 31.6659 65.1831 31.578 65.1831C31.4902 65.1831 31.4902 65.0953 31.4023 65.0075C31.4023 65.0075 31.4023 64.9196 31.4902 64.8318C31.6659 64.7439 31.7537 64.6561 31.9294 64.5682C32.1051 64.4804 32.3687 64.7439 32.3687 64.9196C32.3687 65.1832 32.193 65.0953 32.0173 65.0953C32.0173 65.1831 31.9294 65.1831 31.8416 65.1831Z"
    fill="black" />
  <path
    d="M67.5074 61.1421C67.5074 61.23 67.5074 61.3178 67.5074 61.3178C67.5953 61.5814 67.3317 61.6692 67.2439 61.8449C67.156 61.6692 66.9803 61.5814 66.9803 61.4057C66.8925 61.1421 67.156 60.8786 67.3317 60.9664C67.4196 60.9664 67.5074 61.1421 67.5074 61.1421Z"
    fill="black" />
  <path
    d="M74.6226 62.6347C74.4469 62.8982 74.3591 63.0739 74.1834 63.1618C74.0077 63.2496 73.7441 62.9861 73.7441 62.7225C73.7441 62.6347 73.832 62.459 73.9198 62.459C74.1834 62.459 74.3591 62.5468 74.6226 62.6347Z"
    fill="black" />
  <path
    d="M71.4602 61.4919C71.4602 61.4919 71.4602 61.6676 71.3724 61.6676C71.2845 61.6676 71.1967 61.6676 71.1088 61.5797C71.021 61.5797 71.021 61.4919 70.9331 61.4919C70.8453 61.3162 70.4939 61.2283 70.6696 60.9648C70.6696 60.877 70.8453 60.877 70.9331 60.877C71.1967 60.877 71.3724 61.0526 71.4602 61.3162C71.4602 61.404 71.4602 61.404 71.4602 61.4919Z"
    fill="black" />
  <path
    d="M43.2617 65.0934C43.1738 65.0056 42.9103 64.9177 42.9981 64.8299C42.9981 64.742 43.1738 64.5663 43.2617 64.4785C43.3495 64.3906 43.6131 64.4785 43.7009 64.4785C43.7888 64.4785 43.7888 64.6542 43.7888 64.8299C43.7009 65.1813 43.4374 64.9177 43.2617 65.0934Z"
    fill="black" />
  <path d="M88.1506 53.0604C88.0628 52.9726 87.9749 52.7969 88.0628 52.7969L88.1506 53.0604Z" fill="black" />
  <path
    d="M68.034 62.9863C68.2097 62.9863 68.3854 62.9863 68.3854 62.9863C68.4732 63.0742 68.7367 63.162 68.6489 63.3377C68.561 63.5134 68.3854 63.6891 68.2097 63.5134C68.1218 63.5134 68.1218 63.4256 68.034 63.4256C67.8583 63.4256 67.6826 63.4256 67.7704 63.162C67.7704 63.0742 67.9461 62.9863 68.034 62.9863Z"
    fill="black" />
  <path
    d="M76.9946 58.6816C77.2582 58.6816 77.5217 58.5938 77.4339 58.9452C77.4339 59.1209 77.4339 59.2966 77.1703 59.2966C76.9068 59.2966 76.6433 59.033 76.7311 58.8573C76.8189 58.7695 76.9946 58.7695 76.9946 58.6816Z"
    fill="black" />
  <path
    d="M46.7751 64.4801C46.5994 64.3044 46.4237 64.1287 46.248 63.953C46.3359 63.8651 46.5116 63.6895 46.5994 63.6895C46.863 63.6895 47.1265 64.1287 46.9508 64.3922C46.9508 64.3922 46.863 64.4801 46.7751 64.4801Z"
    fill="black" />
  <path
    d="M48.7958 65.3583C48.708 65.2705 48.708 65.0948 48.6201 65.0069C48.708 64.9191 48.7958 64.9191 48.7958 64.8313C48.7958 64.6556 48.9715 64.5677 49.0593 64.6556C49.235 64.7434 49.4986 64.8312 49.3229 65.0948C49.235 65.3583 49.0593 65.4462 48.7958 65.3583Z"
    fill="black" />
  <path
    d="M41.6802 65.6209C41.5045 65.7966 41.4167 65.8844 41.3288 65.8844C41.0653 65.9723 40.8018 65.7966 40.8018 65.6209C40.8018 65.4452 41.0653 65.2695 41.3288 65.3574C41.4167 65.4452 41.5045 65.533 41.6802 65.6209Z"
    fill="black" />
  <path
    d="M36.5854 64.744C36.4097 64.9197 36.3219 65.0075 36.1462 65.0954C35.9705 64.8318 35.8826 65.1832 35.7069 65.0954C35.6191 65.0954 35.5312 65.0075 35.5312 64.9197V64.744C35.7948 64.6562 36.0583 64.5683 36.4097 64.4805C36.4097 64.6562 36.4976 64.6562 36.5854 64.744Z"
    fill="black" />
  <path
    d="M88.5895 55.871C88.5895 56.2224 88.5895 56.3981 88.2381 56.3102C88.0625 56.3102 87.9746 56.2224 87.9746 56.0467C87.9746 55.871 88.0625 55.6953 88.326 55.7831C88.4138 55.7831 88.5017 55.871 88.5895 55.871Z"
    fill="black" />
  <path
    d="M75.413 60.8786C75.3251 60.7908 75.1494 60.6151 75.1494 60.6151C75.2373 60.4394 75.413 60.3515 75.5886 60.2637C75.6765 60.2637 75.8522 60.4394 75.94 60.5272C75.7643 60.6151 75.5886 60.7029 75.413 60.8786Z"
    fill="black" />
  <path
    d="M90.2593 54.6404C89.9958 54.5525 89.6444 54.4647 89.3809 54.3768C89.3809 54.3768 89.3809 54.289 89.3809 54.2011C89.3809 54.2011 89.3809 54.1133 89.4687 54.1133"
    fill="black" />
  <path
    d="M55.2087 64.4801C55.2965 64.8315 55.1208 64.8315 54.8573 64.8315C54.5937 64.8315 54.5938 64.7437 54.5938 64.568C54.5938 64.3044 54.7694 64.2166 54.9451 64.3044C55.1208 64.3044 55.2087 64.3923 55.2087 64.4801Z"
    fill="black" />
  <path
    d="M57.6687 60.2634C57.6687 60.2634 57.7565 60.3513 57.7565 60.527C57.8444 60.7905 57.6687 60.7905 57.4051 60.7905C57.1416 60.7905 57.1416 60.7026 57.1416 60.527C57.1416 60.2634 57.3173 60.1756 57.6687 60.2634Z"
    fill="black" />
  <path
    d="M41.2409 64.1287C41.1531 64.1287 41.0652 64.2165 40.9774 64.2165C40.8017 64.2165 40.626 64.2165 40.626 63.953C40.626 63.7773 40.626 63.6895 40.8017 63.6895C41.0652 63.6895 41.0652 63.953 41.2409 64.1287Z"
    fill="black" />
  <path
    d="M89.0289 53.4119C88.9411 53.4119 88.9411 53.4997 88.8532 53.4997C88.5018 53.5876 88.3261 53.324 88.414 53.0605L88.5018 52.9727C88.7654 52.9727 89.0289 53.2362 89.0289 53.4119Z"
    fill="black" />
  <path
    d="M78.6637 59.0331C78.488 59.1209 78.4001 59.2966 78.2244 59.2966C78.1366 59.2966 77.9609 59.1209 77.873 59.0331C78.0487 58.9452 78.1366 58.7695 78.3123 58.7695C78.4001 58.7695 78.5758 58.9452 78.6637 59.0331Z"
    fill="black" />
  <path
    d="M38.9569 63.9531C39.1326 64.2167 39.3083 64.3045 39.3962 64.4802C39.3083 64.568 39.2205 64.6559 39.1326 64.6559C38.9569 64.6559 38.7812 64.6559 38.7812 64.3924C38.8691 64.3045 38.8691 64.1288 38.9569 63.9531Z"
    fill="black" />
  <path
    d="M45.3698 63.6013C45.1941 63.5134 45.0184 63.5134 44.9305 63.4256C44.8427 63.3377 45.1062 62.9863 45.2819 62.9863C45.5455 62.9863 45.5455 63.162 45.4576 63.2499C45.4576 63.3377 45.3698 63.4256 45.3698 63.6013Z"
    fill="black" />
  <path
    d="M39.8358 64.3923C39.6601 64.2166 39.5722 64.1287 39.4844 64.0409C39.5722 63.953 39.7479 63.7773 39.8358 63.7773C40.0115 63.7773 40.0993 63.953 40.275 64.0409C40.0993 64.1287 39.9236 64.2166 39.8358 64.3923Z"
    fill="black" />
  <path
    d="M35.3553 61.3164C35.4431 61.5799 35.531 61.6678 35.531 61.7556C35.531 61.9313 35.531 62.107 35.2674 62.107C35.1796 62.107 35.0918 62.0192 35.0039 61.9313C35.0918 61.7556 35.1796 61.5799 35.3553 61.3164Z"
    fill="black" />
  <path
    d="M52.6611 64.3043C52.5733 64.2164 52.3097 64.0407 52.3976 63.9529C52.3976 63.7772 52.5733 63.6894 52.6611 63.5137C52.7489 63.6015 52.9246 63.7772 52.9246 63.8651C52.9246 64.0407 52.7489 64.1286 52.6611 64.3043Z"
    fill="black" />
  <path
    d="M75.9403 59.3845C75.7646 59.2967 75.6767 59.2088 75.5889 59.121C75.6767 59.0331 75.8524 58.8574 75.9403 58.8574C76.0281 58.8574 76.2038 59.0331 76.2916 59.121C76.2038 59.121 76.1159 59.2088 75.9403 59.3845Z"
    fill="black" />
  <path
    d="M62.0603 66.3239C61.6211 66.4118 61.6211 66.2361 61.6211 66.0604C61.6211 65.9726 61.7089 65.8847 61.7968 65.7969C61.9725 65.9726 62.0603 66.0604 62.236 66.2361C62.1482 66.2361 62.0603 66.3239 62.0603 66.3239Z"
    fill="black" />
  <path
    d="M85.3402 56.1345C85.0767 56.1345 84.8132 56.1345 84.901 55.871C84.901 55.7831 84.9889 55.6074 85.0767 55.6074C85.2524 55.6074 85.5159 55.871 85.5159 56.0467C85.5159 56.1345 85.3402 56.1345 85.3402 56.1345Z"
    fill="black" />
  <path
    d="M59.1618 62.8983C59.1618 63.1619 59.1618 63.4254 58.8104 63.3376C58.7226 63.3376 58.5469 63.2497 58.5469 63.1619C58.5469 62.9862 58.8104 62.7227 58.9861 62.7227C59.074 62.8105 59.1618 62.8983 59.1618 62.8983Z"
    fill="black" />
  <path
    d="M89.9951 56.1336C90.3465 55.6065 90.3465 55.6065 90.7857 56.1336C90.5222 56.3093 90.2587 56.3093 89.9951 56.1336Z"
    fill="black" />
  <path
    d="M62.8516 62.8983C62.588 63.1619 62.4124 63.2497 62.3245 63.3376C62.2367 63.2497 62.1488 63.1619 62.1488 63.074C62.1488 62.9862 62.061 62.7227 62.3245 62.7227C62.4124 62.8105 62.5002 62.8105 62.8516 62.8983Z"
    fill="black" />
  <path
    d="M74.0075 59.033C73.8318 59.1209 73.7439 59.2087 73.5682 59.2966C73.5682 59.2966 73.3926 59.2087 73.3926 59.1209C73.3926 58.9452 73.2169 58.6816 73.5682 58.6816C73.7439 58.7695 73.8318 58.8573 74.0075 59.033Z"
    fill="black" />
  <path
    d="M63.3785 61.9315C63.2029 62.0193 63.115 62.1072 63.0272 62.1072C62.8515 62.1072 62.6758 62.195 62.6758 61.9315C62.6758 61.7558 62.8515 61.6679 62.9393 61.5801C63.115 61.5801 63.2029 61.7558 63.3785 61.9315Z"
    fill="black" />
  <path
    d="M52.0465 61.6678C51.783 61.7556 51.6073 61.7556 51.4316 61.8435C51.4316 61.6678 51.3438 61.5799 51.3438 61.4043C51.3438 61.4043 51.5194 61.3164 51.6073 61.3164C51.783 61.4043 51.8708 61.4921 52.0465 61.6678Z"
    fill="black" />
  <path
    d="M40.1871 66.1483C40.0114 66.2361 39.9236 66.3239 39.7479 66.3239C39.5722 66.3239 39.3965 66.4118 39.3965 66.1483C39.3965 66.0604 39.5722 65.8847 39.66 65.7969C39.8357 65.8847 39.9236 65.9726 40.1871 66.1483Z"
    fill="black" />
  <path
    d="M46.8629 60.8788C46.6872 60.9666 46.5994 61.1423 46.4237 61.1423C46.248 61.2302 46.1602 61.0545 46.1602 60.8788C46.1602 60.7909 46.248 60.7031 46.3358 60.6152C46.5994 60.7031 46.6872 60.7031 46.8629 60.8788Z"
    fill="black" />
  <path
    d="M67.5944 58.8572C67.5066 58.9451 67.3309 59.1208 67.3309 59.0329C67.1552 58.9451 67.0673 58.8572 66.9795 58.7694C67.0673 58.6816 67.243 58.5937 67.3309 58.5059C67.4187 58.5059 67.5066 58.7694 67.5944 58.8572Z"
    fill="black" />
  <path
    d="M60.3916 61.0527C60.6551 61.2284 60.743 61.3163 60.9187 61.492C60.8308 61.5798 60.6551 61.6677 60.5673 61.7555C60.5673 61.7555 60.3916 61.6677 60.3916 61.5798C60.3037 61.4041 60.3916 61.2284 60.3916 61.0527Z"
    fill="black" />
  <path
    d="M68.1223 58.2422C68.298 58.4179 68.3858 58.5936 68.5615 58.6814C68.4737 58.7693 68.298 58.8571 68.2101 58.945C67.9466 58.945 68.0344 58.7693 68.0344 58.6814C67.9466 58.5057 68.0344 58.4179 68.1223 58.2422Z"
    fill="black" />
  <path
    d="M41.5048 61.5801C41.7683 61.7558 41.8561 61.8436 42.0318 62.0193C41.944 62.1072 41.7683 62.195 41.6804 62.2828C41.6804 62.2828 41.5048 62.195 41.5048 62.1072C41.3291 61.9315 41.4169 61.7558 41.5048 61.5801Z"
    fill="black" />
  <path
    d="M57.1412 65.9725C56.9655 66.0603 56.8777 66.1482 56.702 66.1482C56.5263 66.1482 56.3506 66.236 56.3506 65.9725C56.3506 65.8846 56.5263 65.7089 56.6141 65.6211C56.7898 65.7089 56.8777 65.7968 57.1412 65.9725Z"
    fill="black" />
  <path
    d="M77.0826 56.3983C76.9069 56.4861 76.8191 56.574 76.6434 56.574C76.4677 56.574 76.292 56.6618 76.292 56.3983C76.292 56.3104 76.4677 56.1347 76.5555 56.0469C76.7312 56.0469 76.8191 56.2226 77.0826 56.3983Z"
    fill="black" />
  <path
    d="M49.1475 62.9861C49.1475 62.8983 49.2353 62.8105 49.2353 62.8105C49.3232 62.7226 49.4988 62.7226 49.5867 62.6348C49.5867 62.7226 49.6745 62.8105 49.6745 62.9861C49.6745 63.2497 49.411 63.1618 49.3232 63.1618C49.3232 63.074 49.2353 63.074 49.1475 62.9861Z"
    fill="black" />
  <path
    d="M47.4786 61.5798C47.3029 61.6677 47.215 61.7555 47.0394 61.8434C47.0394 61.8434 46.8637 61.7555 46.8637 61.6677C46.8637 61.492 46.7758 61.2284 47.0394 61.3163C47.215 61.3163 47.3029 61.492 47.4786 61.5798Z"
    fill="black" />
  <path
    d="M41.0649 63.0742C41.2406 63.1621 41.3284 63.1621 41.4163 63.2499C41.3284 63.4256 41.2406 63.5134 41.1527 63.6891C41.0649 63.6013 40.977 63.4256 40.8892 63.3378C40.8013 63.3378 40.977 63.1621 41.0649 63.0742Z"
    fill="black" />
  <path
    d="M64.2565 63.6013C64.1687 63.6892 63.993 63.777 63.993 63.6892C63.8173 63.6013 63.7294 63.5135 63.6416 63.4256C63.8173 63.3378 63.9051 63.25 64.0808 63.1621C64.1687 63.25 64.1687 63.4256 64.2565 63.6013Z"
    fill="black" />
  <path
    d="M36.7607 64.041C36.9363 64.2167 37.0242 64.3046 37.112 64.3924C37.112 64.3924 37.0242 64.5681 36.9363 64.5681C36.8485 64.5681 36.6728 64.4802 36.585 64.4802C36.585 64.3924 36.6728 64.2167 36.7607 64.041Z"
    fill="black" />
  <path
    d="M60.5671 63.6898C60.3914 63.7776 60.3035 63.8655 60.3035 63.8655C60.2157 63.7776 60.04 63.6898 59.9521 63.5141C60.04 63.4262 60.04 63.1627 60.3035 63.3384C60.3914 63.4262 60.4792 63.5141 60.5671 63.6898Z"
    fill="black" />
  <path
    d="M72.1629 60.3516C72.2507 60.4394 72.4264 60.6151 72.4264 60.6151C72.3386 60.7908 72.2507 60.8786 72.1629 60.9665C72.075 60.8786 71.9872 60.7908 71.8993 60.6151C71.8115 60.5273 71.9872 60.4394 72.1629 60.3516Z"
    fill="black" />
  <path
    d="M38.9577 62.5468C38.782 62.7225 38.6941 62.8982 38.5184 62.9861C38.4306 62.8982 38.3427 62.8104 38.2549 62.6347C38.2549 62.6347 38.3427 62.459 38.4306 62.459C38.6063 62.459 38.6941 62.459 38.9577 62.5468Z"
    fill="black" />
  <path
    d="M71.3727 59.5603C71.1092 59.5603 71.0213 59.6482 70.8456 59.6482C70.7578 59.6482 70.6699 59.4725 70.6699 59.4725C70.7578 59.3846 70.8456 59.2089 70.9335 59.1211C71.1092 59.2089 71.197 59.3846 71.3727 59.5603Z"
    fill="black" />
  <path
    d="M60.1276 64.9178C59.9519 65.0056 59.8641 65.0935 59.6884 65.1813C59.6884 65.1813 59.5127 65.0935 59.5127 65.0056C59.5127 64.8299 59.337 64.5664 59.6884 64.5664C59.8641 64.6543 59.9519 64.8299 60.1276 64.9178Z"
    fill="black" />
  <path
    d="M38.1668 65.4463C38.0789 65.2706 37.9032 65.1828 37.9032 65.0949C37.8154 64.9192 37.9911 64.8314 38.1668 64.9192C38.2546 64.9192 38.3425 65.0071 38.4303 65.0949C38.3425 65.0949 38.2546 65.2706 38.1668 65.4463Z"
    fill="black" />
  <path
    d="M70.7577 57.3633C70.8455 57.4511 71.0212 57.6268 71.0212 57.6268C71.0212 57.7147 70.8455 57.8904 70.7577 57.9782C70.6698 57.8025 70.582 57.7147 70.4941 57.539C70.4941 57.539 70.6698 57.4511 70.7577 57.3633Z"
    fill="black" />
  <path
    d="M58.0202 62.5467C57.8445 62.6346 57.6688 62.7224 57.4931 62.8103C57.4053 62.7224 57.4053 62.6346 57.4053 62.5467C57.4053 62.4589 57.4931 62.371 57.4931 62.2832C57.6688 62.2832 57.8445 62.371 58.0202 62.5467Z"
    fill="black" />
  <path
    d="M38.9577 60.5257C38.6941 60.7014 38.6063 60.7892 38.5184 60.8771C38.4306 60.7892 38.2549 60.6135 38.2549 60.5257C38.2549 60.2621 38.4306 60.35 38.6063 60.35C38.6941 60.4378 38.782 60.4378 38.9577 60.5257Z"
    fill="black" />
  <path
    d="M41.7683 63.6016C41.8562 63.7773 41.944 63.8651 41.944 63.8651C41.7683 64.0408 41.6805 64.1286 41.5048 64.2165C41.4169 64.1286 41.3291 64.0408 41.3291 64.0408C41.5048 63.9529 41.5926 63.7773 41.7683 63.6016Z"
    fill="black" />
  <path
    d="M73.0419 61.9313C72.954 61.7556 72.8662 61.5799 72.7783 61.4043C72.954 61.4043 73.0419 61.3164 73.2175 61.3164C73.3054 61.3164 73.3932 61.4921 73.3932 61.5799C73.3054 61.6678 73.2175 61.7556 73.0419 61.9313Z"
    fill="black" />
  <path
    d="M66.7167 61.7559C66.8045 61.8437 66.9802 62.0194 66.8924 62.0194C66.8045 62.1072 66.6288 62.1951 66.541 62.3708C66.4531 62.2829 66.1896 62.2829 66.2774 62.0194C66.4531 61.9315 66.541 61.9316 66.7167 61.7559Z"
    fill="black" />
  <path
    d="M39.2205 65.8844C39.0448 65.7088 38.9569 65.5331 38.7812 65.4452C38.7812 65.4452 38.8691 65.3574 38.9569 65.2695C39.1326 65.3574 39.2205 65.5331 39.3962 65.6209C39.3962 65.6209 39.3083 65.7088 39.2205 65.8844Z"
    fill="black" />
  <path
    d="M72.5146 64.0408C72.6903 63.8651 72.7782 63.6894 72.9539 63.6016C73.0417 63.6894 73.1296 63.7773 73.2174 63.9529C73.2174 63.9529 73.1296 64.1286 73.0417 64.1286C72.866 64.1286 72.6903 64.0408 72.5146 64.0408Z"
    fill="black" />
  <path
    d="M73.6561 57.5391C73.8318 57.6269 73.9197 57.7148 73.9197 57.8026C74.0075 57.9783 73.8318 58.0661 73.6561 57.9783C73.5683 57.9783 73.4804 57.8904 73.3926 57.8026C73.4804 57.7148 73.5683 57.6269 73.6561 57.5391Z"
    fill="black" />
  <path
    d="M65.6627 62.2836C65.487 62.3715 65.3992 62.5472 65.2235 62.635C65.2235 62.635 65.0478 62.4593 64.96 62.3715C65.1357 62.2836 65.2235 62.1958 65.3992 62.1079C65.487 62.0201 65.5749 62.1958 65.6627 62.2836Z"
    fill="black" />
  <path
    d="M76.3798 58.4177C76.2919 58.3299 76.2041 58.1542 76.1162 58.0663C76.2041 57.9785 76.2919 57.9785 76.3798 57.8906C76.5554 57.8906 76.7311 57.8906 76.6433 58.0663C76.6433 58.3299 76.5554 58.3299 76.3798 58.4177Z"
    fill="black" />
  <path
    d="M75.7642 58.5935C75.5886 58.6814 75.5007 58.6814 75.4129 58.6814C75.2372 58.5935 75.1493 58.5057 74.9736 58.4178C75.0615 58.33 75.1493 58.1543 75.2372 58.1543C75.325 58.2421 75.5007 58.4178 75.7642 58.5935Z"
    fill="black" />
  <path
    d="M52.5731 62.195C52.4853 62.1072 52.3974 61.9315 52.3096 61.8437L52.3974 61.668C52.5731 61.7558 52.661 61.8437 52.8366 61.9315C52.8366 62.0194 52.7488 62.1072 52.5731 62.195Z"
    fill="black" />
  <path
    d="M34.3016 62.9863C34.3894 63.0742 34.4773 63.2499 34.5651 63.3377C34.5651 63.3377 34.4773 63.5134 34.3894 63.5134C34.2137 63.4256 34.1259 63.3377 33.9502 63.2499C34.038 63.162 34.1259 63.0742 34.3016 62.9863Z"
    fill="black" />
  <path
    d="M36.2334 63.8649C36.1455 63.6014 36.1455 63.5135 36.1455 63.4257C36.1455 63.3378 36.2334 63.3378 36.2334 63.25C36.409 63.3378 36.4969 63.4257 36.6726 63.6014C36.4969 63.6014 36.409 63.6892 36.2334 63.8649Z"
    fill="black" />
  <path
    d="M70.1424 61.3164C70.2302 61.4921 70.3181 61.5799 70.4059 61.7556L70.2302 61.9313C70.0546 61.8435 69.9667 61.7556 69.791 61.6678C69.9667 61.4921 70.0546 61.4043 70.1424 61.3164Z"
    fill="black" />
  <path
    d="M58.8105 64.1272C58.8105 64.0393 58.7227 64.0393 58.7227 63.9515C58.7227 63.6879 58.8983 63.7758 59.074 63.7758C59.1619 63.7758 59.3376 63.8636 59.3376 63.9515C59.3376 64.215 59.074 64.0393 58.8105 64.1272Z"
    fill="black" />
  <path
    d="M34.3016 64.041C34.3016 64.2167 34.3894 64.3924 34.3894 64.5681C34.3894 64.5681 34.2137 64.6559 34.1259 64.6559C33.8624 64.5681 34.038 64.3924 33.9502 64.2167C33.9502 64.1289 34.1259 64.1289 34.3016 64.041Z"
    fill="black" />
  <path
    d="M60.3912 64.303C60.0398 64.3909 59.8641 64.4787 59.7762 64.4787C59.6884 64.4787 59.5127 64.3909 59.5127 64.303C59.5127 64.0395 59.6884 64.1273 59.8641 64.1273C59.9519 64.1273 60.0398 64.1273 60.3912 64.303Z"
    fill="black" />
  <path
    d="M44.8426 64.2168C44.8426 64.3925 44.9304 64.5682 44.9304 64.7439C44.9304 64.7439 44.7547 64.8317 44.6669 64.8317C44.4034 64.7439 44.5791 64.5682 44.4912 64.3925C44.4912 64.3046 44.6669 64.3046 44.8426 64.2168Z"
    fill="black" />
  <path
    d="M51.9587 64.5682C51.8708 64.6561 51.783 64.7439 51.6951 64.8318C51.6073 64.7439 51.4316 64.5682 51.3438 64.4804C51.3438 64.4804 51.4316 64.3047 51.5194 64.3047C51.6073 64.3925 51.783 64.4804 51.9587 64.5682Z"
    fill="black" />
  <path
    d="M55.2089 61.7556C55.121 61.6678 55.0332 61.4921 55.0332 61.4921C55.0332 61.2286 55.2967 61.3164 55.3846 61.4043C55.4724 61.4043 55.5603 61.5799 55.5603 61.5799C55.4724 61.5799 55.3846 61.6678 55.2089 61.7556Z"
    fill="black" />
  <path
    d="M63.1151 60.0876C63.0273 59.9997 62.8516 59.9119 62.8516 59.9119C62.9394 59.7362 63.0273 59.6483 63.1151 59.4727C63.2029 59.5605 63.3786 59.6484 63.3786 59.7362C63.2908 59.824 63.2029 59.9119 63.1151 60.0876Z"
    fill="black" />
  <path
    d="M87.0968 53.4119C87.009 53.4998 86.9212 53.5876 86.8333 53.5876C86.5698 53.5876 86.6576 53.3241 86.6576 53.2362C86.6576 53.1484 86.8333 53.1484 86.9211 53.0605C87.009 53.1484 87.009 53.2362 87.0968 53.4119Z"
    fill="black" />
  <path
    d="M59.2496 59.8245C58.8982 59.9124 58.7225 60.0002 58.6346 60.0002C58.5468 60.0002 58.3711 59.9124 58.3711 59.8245C58.3711 59.561 58.5468 59.6488 58.7225 59.6488C58.8103 59.6488 58.8982 59.7367 59.2496 59.8245Z"
    fill="black" />
  <path
    d="M43.9646 61.1404C43.8768 61.2283 43.8768 61.3161 43.8768 61.3161C43.7011 61.2283 43.6132 61.2283 43.5254 61.1404C43.3497 61.0526 43.5254 60.9648 43.6132 60.8769C43.7011 60.8769 43.7889 60.7891 43.7889 60.7891C43.7889 60.8769 43.8768 61.0526 43.9646 61.1404Z"
    fill="black" />
  <path
    d="M62.0605 59.9121C62.2361 60.0878 62.324 60.1756 62.4118 60.2635C62.4118 60.2635 62.2362 60.4392 62.1483 60.527C62.0605 60.3513 61.9726 60.2635 61.8848 60.0878C61.8848 60.1757 61.9726 60.0878 62.0605 59.9121Z"
    fill="black" />
  <path
    d="M89.4683 54.4651C89.1169 54.553 88.9412 54.6408 88.8534 54.6408C88.7655 54.6408 88.5898 54.553 88.5898 54.4651C88.5898 54.2016 88.7655 54.2894 88.9412 54.2894C89.0291 54.2894 89.1169 54.3773 89.4683 54.4651Z"
    fill="black" />
  <path
    d="M83.1432 55.0799C83.0554 55.1678 82.9676 55.2556 82.8797 55.3435C82.7919 55.2556 82.6162 55.0799 82.5283 54.9921C82.5283 54.9921 82.6162 54.8164 82.704 54.8164C82.8797 54.9043 83.0554 54.9921 83.1432 55.0799Z"
    fill="black" />
  <path
    d="M61.0945 61.0529C60.9189 60.965 60.831 60.8772 60.7432 60.7894C60.831 60.7015 60.9189 60.6137 61.0067 60.6137C61.1824 60.6137 61.3581 60.5258 61.3581 60.7894C61.2702 60.8772 61.1824 60.8772 61.0945 61.0529Z"
    fill="black" />
  <path
    d="M85.9549 55.8708C85.8671 55.783 85.7793 55.6073 85.6914 55.5194C85.7793 55.4316 85.8671 55.4316 85.9549 55.3438C86.1306 55.3438 86.3063 55.3438 86.2185 55.5194C86.2185 55.6951 86.1306 55.783 85.9549 55.8708Z"
    fill="black" />
  <path
    d="M76.0283 60.703C76.204 60.6152 76.2919 60.5273 76.2919 60.5273C76.4676 60.6152 76.5554 60.703 76.6432 60.7909C76.5554 60.7909 76.3797 60.8787 76.2919 60.8787C76.204 60.9666 76.204 60.7909 76.0283 60.703Z"
    fill="black" />
  <path
    d="M64.1689 66.9391C64.081 66.7634 63.9932 66.6756 63.9932 66.6756C64.081 66.5878 64.1689 66.4121 64.3445 66.3242C64.3445 66.4121 64.4324 66.5878 64.4324 66.6756C64.3445 66.7634 64.2567 66.8513 64.1689 66.9391Z"
    fill="black" />
  <path
    d="M33.6864 66.4998C33.5985 66.4119 33.5107 66.4119 33.4229 66.3241C33.5985 66.2362 33.6864 66.1484 33.8621 66.0605C33.8621 66.0605 34.0378 66.2362 33.9499 66.2362C33.8621 66.4119 33.7742 66.4998 33.6864 66.4998Z"
    fill="black" />
  <path
    d="M82.6168 53.8494C82.4411 53.8494 82.2654 53.9373 82.1776 53.8494C82.0898 53.8494 82.0019 53.7616 81.9141 53.6737C82.0019 53.5859 82.0898 53.498 82.1776 53.498C82.3533 53.5859 82.4411 53.7616 82.6168 53.8494Z"
    fill="black" />
  <path
    d="M34.3895 65.2695C34.4774 65.4452 34.5652 65.5331 34.5652 65.5331C34.4774 65.6209 34.3895 65.7966 34.2138 65.8844C34.2138 65.7966 34.126 65.6209 34.126 65.5331C34.2138 65.5331 34.3017 65.4452 34.3895 65.2695Z"
    fill="black" />
  <path
    d="M56.7895 65.0935C56.7016 65.0057 56.5259 64.9178 56.6138 64.83C56.6138 64.7421 56.7016 64.6543 56.7895 64.6543C56.8773 64.6543 57.053 64.6543 57.1409 64.7421C57.053 64.83 56.9652 64.9178 56.7895 65.0935Z"
    fill="black" />
  <path
    d="M78.4881 57.2752C78.4002 57.2752 78.3124 57.2752 78.2245 57.2752C78.1367 57.1874 78.1367 57.0995 78.0488 57.0117C78.1367 57.0117 78.2245 56.9238 78.3124 56.9238C78.4002 56.9238 78.4002 57.0117 78.4881 57.0117C78.5759 57.0995 78.6637 57.0995 78.6637 57.1874C78.5759 57.1874 78.4881 57.1874 78.4881 57.2752Z"
    fill="black" />
  <path
    d="M42.7342 61.4043C42.822 61.4921 42.9099 61.58 42.9099 61.6678C42.9099 61.8435 42.822 61.9314 42.6463 61.8435C42.5585 61.8435 42.4707 61.8435 42.3828 61.7557C42.4707 61.6678 42.5585 61.58 42.7342 61.4043Z"
    fill="black" />
  <path
    d="M48.2684 65.1814C48.1806 65.0935 48.0927 65.0057 48.0049 64.9178C48.0927 64.83 48.1806 64.7421 48.2684 64.6543C48.3563 64.7421 48.4441 64.9178 48.532 65.0057C48.532 65.0935 48.3563 65.0935 48.2684 65.1814Z"
    fill="black" />
  <path
    d="M59.2499 62.1074C59.3377 62.2831 59.5134 62.371 59.4256 62.4588C59.4256 62.5467 59.2499 62.6345 59.162 62.8102C59.0742 62.7223 58.9863 62.6345 58.9863 62.6345C59.0742 62.4588 59.162 62.371 59.2499 62.1074Z"
    fill="black" />
  <path
    d="M67.7704 62.6345C67.6825 62.5467 67.5947 62.4588 67.5068 62.371C67.5947 62.2832 67.6825 62.1953 67.6825 62.1953C67.8582 62.2832 67.9461 62.371 68.0339 62.4588C68.0339 62.5467 67.9461 62.6345 67.7704 62.6345Z"
    fill="black" />
  <path
    d="M46.3367 62.6346C46.2488 62.7225 46.161 62.8103 46.161 62.8982C46.0732 62.8103 45.9853 62.6346 45.8975 62.5468C45.8975 62.5468 45.9853 62.4589 46.0732 62.3711C46.0732 62.4589 46.2488 62.5468 46.3367 62.6346Z"
    fill="black" />
  <path
    d="M49.499 61.1405C49.6747 61.0527 49.7626 60.9648 49.7626 60.9648C49.9383 61.0527 50.0261 61.1405 50.1139 61.2284C50.0261 61.2284 49.8504 61.3162 49.7626 61.3162C49.6747 61.3162 49.5869 61.2284 49.499 61.1405Z"
    fill="black" />
  <path
    d="M83.7587 55.0801C83.8465 55.2558 83.9343 55.3436 83.9343 55.3436C83.8465 55.4315 83.7587 55.4315 83.6708 55.5193C83.583 55.4315 83.4951 55.3436 83.4951 55.3436C83.583 55.3436 83.6708 55.2558 83.7587 55.0801Z"
    fill="black" />
  <path
    d="M58.0194 61.0527C58.1072 61.2284 58.1951 61.3163 58.1951 61.3163C58.1072 61.4041 58.0194 61.4041 57.9315 61.492C57.8437 61.4041 57.7559 61.3163 57.7559 61.3163C57.8437 61.2284 57.9315 61.1406 58.0194 61.0527Z"
    fill="black" />
  <path
    d="M69.9666 61.9328C69.8787 62.0207 69.703 62.1085 69.703 62.1085C69.6152 62.1085 69.6152 61.9328 69.5273 61.845C69.6152 61.845 69.703 61.7571 69.7909 61.7571C69.7909 61.6693 69.8787 61.7571 69.9666 61.9328Z"
    fill="black" />
  <path
    d="M80.4207 59.8242C80.4207 59.9999 80.5085 60.2634 80.1571 60.1756C79.8936 60.1756 80.0693 59.9121 79.9814 59.8242C80.1571 59.8242 80.3328 59.8242 80.4207 59.8242Z"
    fill="black" />
  <path
    d="M68.122 61.7556C68.0341 61.6678 67.9463 61.5799 67.9463 61.4921C67.9463 61.4042 68.0341 61.4043 68.122 61.3164C68.2098 61.4043 68.2977 61.4042 68.3855 61.4921C68.2977 61.5799 68.2098 61.6678 68.122 61.7556Z"
    fill="black" />
  <path
    d="M85.9549 52.6203C85.7792 52.7082 85.6913 52.796 85.6913 52.796C85.6035 52.7082 85.5156 52.6203 85.5156 52.6203C85.6035 52.5325 85.6913 52.4446 85.6913 52.5325C85.7792 52.4446 85.867 52.5325 85.9549 52.6203Z"
    fill="black" />
  <path
    d="M48.2685 61.7556C48.1806 61.6678 48.0928 61.5799 48.0928 61.4921C48.0928 61.4042 48.1806 61.4043 48.2685 61.3164C48.3563 61.4043 48.4442 61.4042 48.532 61.4921C48.4442 61.5799 48.3563 61.6678 48.2685 61.7556Z"
    fill="black" />
  <path
    d="M46.4237 61.7556C46.3359 61.5799 46.248 61.4921 46.248 61.4042C46.248 61.3164 46.4237 61.2285 46.4237 61.2285C46.5116 61.3164 46.5994 61.4042 46.5994 61.4921C46.6873 61.5799 46.5116 61.6678 46.4237 61.7556Z"
    fill="black" />
  <path
    d="M61.9724 63.5129C61.7967 63.6008 61.7967 63.6886 61.7089 63.6886C61.6211 63.6886 61.621 63.6008 61.5332 63.6008C61.621 63.5129 61.6211 63.4251 61.7089 63.4251C61.7089 63.3372 61.7967 63.4251 61.9724 63.5129Z"
    fill="black" />
  <path
    d="M84.2858 57.9795C84.1101 58.0674 84.0223 58.1552 83.8466 58.1552C83.8466 58.1552 83.7587 58.0674 83.6709 58.0674C83.7587 57.9795 83.7587 57.8917 83.8466 57.8917C83.9344 57.8038 84.0223 57.8038 84.2858 57.9795Z"
    fill="black" />
  <path
    d="M60.5674 65.4451C60.5674 65.2694 60.5674 65.1816 60.5674 65.0938H60.6552C60.6552 65.1816 60.6552 65.2694 60.7431 65.3573C60.7431 65.3573 60.6552 65.3573 60.5674 65.4451Z"
    fill="black" />
  <path
    d="M37.1122 66.9393C37.0244 66.8515 36.9365 66.8515 36.9365 66.7636C37.0244 66.7636 37.1122 66.6758 37.2001 66.6758C37.2001 66.6758 37.2879 66.7636 37.3758 66.7636C37.2001 66.8515 37.2001 66.8515 37.1122 66.9393Z"
    fill="black" />
  <path
    d="M39.5722 67.2909C39.5722 67.2909 39.5722 67.203 39.4844 67.1152C39.5722 67.1152 39.5722 67.0273 39.6601 67.0273C39.7479 67.0273 39.7479 67.1152 39.8358 67.1152C39.7479 67.203 39.6601 67.203 39.5722 67.2909Z"
    fill="black" />
  <path
    d="M80.7714 63.6894C80.6836 63.6894 80.6836 63.6894 80.6836 63.6015C80.6836 63.6015 80.6836 63.6015 80.7714 63.5137C80.7714 63.6015 80.7714 63.6015 80.7714 63.6894Z"
    fill="black" />
  <path
    d="M72.2509 65.6211L72.1631 65.7089C72.1631 65.7089 72.0752 65.6211 72.1631 65.6211C72.0752 65.6211 72.1631 65.6211 72.2509 65.6211Z"
    fill="black" />
  <path
    d="M37.4638 66.9394C37.4638 67.0273 37.3759 67.0273 37.4638 66.9394C37.3759 66.9394 37.2881 66.9394 37.2881 66.9394L37.3759 66.8516C37.3759 66.9394 37.4638 66.9394 37.4638 66.9394Z"
    fill="black" />
  <path
    d="M40.1874 67.1152L40.0996 67.2031C40.0996 67.2031 40.0996 67.2031 40.0117 67.1152C40.0996 67.1152 40.0996 67.1152 40.1874 67.1152Z"
    fill="black" />
  <path
    d="M3.81858 58.4179C8.82579 53.1471 26.4828 49.194 47.478 49.194C68.4732 49.194 86.1302 53.1471 91.1374 58.5057C92.1037 57.5394 92.6308 56.4853 92.6308 55.3433C92.6308 48.4913 72.4262 42.8691 47.478 42.8691C22.5298 42.8691 2.3252 48.4913 2.3252 55.3433C2.3252 56.3974 2.85227 57.4516 3.81858 58.4179Z"
    fill="#2323C7" />
  <path
    d="M53.0115 18.4476L51.7817 7.55475C51.4303 4.48014 48.8828 2.1083 45.7203 2.1083C42.7336 2.1083 40.2739 4.2166 39.7468 7.11552L39.3954 9.04813L37.2871 8.69674L37.6385 6.76413C38.3413 2.81107 41.7672 0 45.7203 0C49.9369 0 53.4508 3.16245 53.89 7.29121L55.1198 18.1841L53.0115 18.4476Z"
    fill="black" />
  <path d="M34.0858 26.7624L28.4932 58.6016L30.5696 58.9663L36.1623 27.1271L34.0858 26.7624Z" fill="black" />
  <path d="M29.2929 66.7633L27.1846 66.4997L32.0161 39.0918L34.1244 39.4432L29.2929 66.7633Z" fill="black" />
  <path d="M34.0111 30.8062L20.168 35.9199L20.8985 37.8975L34.7416 32.7838L34.0111 30.8062Z" fill="black" />
  <path d="M31.989 43.8735L18.0635 49.0176L18.794 50.9952L32.7195 45.851L31.989 43.8735Z" fill="black" />
  <path
    d="M22.4413 26.9689H73.919C74.0068 26.9689 74.0069 26.9689 74.0947 26.9689L92.4545 16.3396C92.718 16.1639 92.6302 15.8125 92.2788 15.8125H40.8011C40.7133 15.8125 40.7133 15.8125 40.6254 15.8125L22.3535 26.5297C22.0899 26.6175 22.1778 26.9689 22.4413 26.9689Z"
    fill="#DCDEF1" />
  <path
    d="M16.6435 64.3907L14.623 63.8636L23.5833 9.92624C24.2861 5.97318 27.7121 3.16211 31.6651 3.16211C35.8818 3.16211 39.3956 6.32456 39.8348 10.4533L41.6796 26.8805L39.4834 27.144L37.6387 10.7169C37.2873 7.64225 34.7398 5.27041 31.5773 5.27041C28.5905 5.27041 26.1309 7.37871 25.6038 10.2776L16.6435 64.3907Z"
    fill="black" />
  <path d="M30.307 55.4542L15.8047 60.8145L16.5356 62.792L31.0379 57.4318L30.307 55.4542Z" fill="black" />
  <defs>
    <linearGradient id="paint0_linear" x1="47.3584" y1="61.2378" x2="-35.2181" y2="-0.546155"
      gradientUnits="userSpaceOnUse">
      <stop offset="0.00916413" stop-color="#5546FF" />
      <stop offset="0.5131" stop-color="#6FE9E4" />
      <stop offset="1" stop-color="#E2F3E5" />
    </linearGradient>
  </defs>
</svg>
